<mxfile host="app.diagrams.net" agent="Mozilla/5.0 (Windows NT 10.0; Win64; x64) AppleWebKit/537.36 (KHTML, like Gecko) Chrome/140.0.0.0 Safari/537.36" version="28.2.7">
  <diagram name="Страница — 1" id="kG0iAVlivIHvvjmvwsi-">
    <mxGraphModel dx="1736" dy="1719" grid="1" gridSize="10" guides="1" tooltips="1" connect="1" arrows="1" fold="1" page="1" pageScale="1" pageWidth="827" pageHeight="1169" math="0" shadow="0">
      <root>
        <mxCell id="0" />
        <mxCell id="1" parent="0" />
        <mxCell id="iKDYDLjzP7U--BUIRFLF-1" value="" style="rounded=0;whiteSpace=wrap;html=1;" vertex="1" parent="1">
          <mxGeometry x="30" y="-60" width="670" height="740" as="geometry" />
        </mxCell>
        <mxCell id="iKDYDLjzP7U--BUIRFLF-2" style="rounded=0;orthogonalLoop=1;jettySize=auto;html=1;exitX=1;exitY=0.3333333333333333;exitDx=0;exitDy=0;exitPerimeter=0;entryX=0;entryY=0.5;entryDx=0;entryDy=0;" edge="1" parent="1" source="iKDYDLjzP7U--BUIRFLF-3" target="iKDYDLjzP7U--BUIRFLF-13">
          <mxGeometry relative="1" as="geometry" />
        </mxCell>
        <mxCell id="iKDYDLjzP7U--BUIRFLF-3" value="Пользователь&lt;br&gt;метро" style="shape=umlActor;verticalLabelPosition=bottom;verticalAlign=top;html=1;" vertex="1" parent="1">
          <mxGeometry x="-40" y="200" width="30" height="60" as="geometry" />
        </mxCell>
        <mxCell id="iKDYDLjzP7U--BUIRFLF-4" style="rounded=0;orthogonalLoop=1;jettySize=auto;html=1;exitX=0.228;exitY=0.792;exitDx=0;exitDy=0;exitPerimeter=0;entryX=1;entryY=0.5;entryDx=0;entryDy=0;" edge="1" parent="1" source="iKDYDLjzP7U--BUIRFLF-5" target="iKDYDLjzP7U--BUIRFLF-32">
          <mxGeometry relative="1" as="geometry" />
        </mxCell>
        <mxCell id="iKDYDLjzP7U--BUIRFLF-5" value="Таймер" style="shape=umlActor;verticalLabelPosition=bottom;verticalAlign=top;html=1;" vertex="1" parent="1">
          <mxGeometry x="730" y="340" width="30" height="60" as="geometry" />
        </mxCell>
        <mxCell id="iKDYDLjzP7U--BUIRFLF-6" value="Пункт управления" style="shape=umlActor;verticalLabelPosition=bottom;verticalAlign=top;html=1;" vertex="1" parent="1">
          <mxGeometry x="770" y="140" width="30" height="60" as="geometry" />
        </mxCell>
        <mxCell id="iKDYDLjzP7U--BUIRFLF-7" value="Память табло" style="shape=umlActor;verticalLabelPosition=bottom;verticalAlign=top;html=1;" vertex="1" parent="1">
          <mxGeometry x="890" y="330" width="30" height="60" as="geometry" />
        </mxCell>
        <mxCell id="iKDYDLjzP7U--BUIRFLF-8" style="rounded=0;orthogonalLoop=1;jettySize=auto;html=1;exitX=0;exitY=0.3333333333333333;exitDx=0;exitDy=0;exitPerimeter=0;entryX=1;entryY=0.5;entryDx=0;entryDy=0;" edge="1" parent="1" source="iKDYDLjzP7U--BUIRFLF-10" target="iKDYDLjzP7U--BUIRFLF-26">
          <mxGeometry relative="1" as="geometry" />
        </mxCell>
        <mxCell id="iKDYDLjzP7U--BUIRFLF-9" style="rounded=0;orthogonalLoop=1;jettySize=auto;html=1;exitX=0;exitY=0.3333333333333333;exitDx=0;exitDy=0;exitPerimeter=0;entryX=0.5;entryY=1;entryDx=0;entryDy=0;" edge="1" parent="1" source="iKDYDLjzP7U--BUIRFLF-10" target="iKDYDLjzP7U--BUIRFLF-22">
          <mxGeometry relative="1" as="geometry">
            <Array as="points">
              <mxPoint x="650" y="540" />
            </Array>
          </mxGeometry>
        </mxCell>
        <mxCell id="iKDYDLjzP7U--BUIRFLF-10" value="Датчики конкретной станции" style="shape=umlActor;verticalLabelPosition=bottom;verticalAlign=top;html=1;" vertex="1" parent="1">
          <mxGeometry x="770" y="520" width="30" height="60" as="geometry" />
        </mxCell>
        <mxCell id="iKDYDLjzP7U--BUIRFLF-11" value="Обновить и отобразить рекламу" style="ellipse;whiteSpace=wrap;html=1;" vertex="1" parent="1">
          <mxGeometry x="520" y="85" width="140" height="60" as="geometry" />
        </mxCell>
        <mxCell id="iKDYDLjzP7U--BUIRFLF-12" value="Обновить и отобразить расписание" style="ellipse;whiteSpace=wrap;html=1;" vertex="1" parent="1">
          <mxGeometry x="520" y="165" width="140" height="60" as="geometry" />
        </mxCell>
        <mxCell id="iKDYDLjzP7U--BUIRFLF-13" value="Посмотреть информацию" style="ellipse;whiteSpace=wrap;html=1;" vertex="1" parent="1">
          <mxGeometry x="40" y="200" width="140" height="60" as="geometry" />
        </mxCell>
        <mxCell id="iKDYDLjzP7U--BUIRFLF-14" style="rounded=0;orthogonalLoop=1;jettySize=auto;html=1;exitX=0;exitY=0.5;exitDx=0;exitDy=0;entryX=1;entryY=0;entryDx=0;entryDy=0;endArrow=block;endFill=0;" edge="1" parent="1" source="iKDYDLjzP7U--BUIRFLF-15" target="iKDYDLjzP7U--BUIRFLF-13">
          <mxGeometry relative="1" as="geometry" />
        </mxCell>
        <mxCell id="iKDYDLjzP7U--BUIRFLF-15" value="Узнать текущее время" style="ellipse;whiteSpace=wrap;html=1;" vertex="1" parent="1">
          <mxGeometry x="210" y="130" width="140" height="60" as="geometry" />
        </mxCell>
        <mxCell id="iKDYDLjzP7U--BUIRFLF-16" style="rounded=0;orthogonalLoop=1;jettySize=auto;html=1;exitX=0;exitY=0.5;exitDx=0;exitDy=0;entryX=1;entryY=0.5;entryDx=0;entryDy=0;endArrow=block;endFill=0;" edge="1" parent="1" source="iKDYDLjzP7U--BUIRFLF-17" target="iKDYDLjzP7U--BUIRFLF-13">
          <mxGeometry relative="1" as="geometry" />
        </mxCell>
        <mxCell id="iKDYDLjzP7U--BUIRFLF-17" value="Посмотреть рекламу" style="ellipse;whiteSpace=wrap;html=1;" vertex="1" parent="1">
          <mxGeometry x="210" y="200" width="140" height="60" as="geometry" />
        </mxCell>
        <mxCell id="iKDYDLjzP7U--BUIRFLF-18" value="Узнать конечную станцию прибывающего поезда" style="ellipse;whiteSpace=wrap;html=1;" vertex="1" parent="1">
          <mxGeometry x="210" y="270" width="140" height="60" as="geometry" />
        </mxCell>
        <mxCell id="iKDYDLjzP7U--BUIRFLF-19" style="rounded=0;orthogonalLoop=1;jettySize=auto;html=1;exitX=0;exitY=0.5;exitDx=0;exitDy=0;entryX=0.5;entryY=1;entryDx=0;entryDy=0;endArrow=block;endFill=0;" edge="1" parent="1" source="iKDYDLjzP7U--BUIRFLF-20" target="iKDYDLjzP7U--BUIRFLF-13">
          <mxGeometry relative="1" as="geometry" />
        </mxCell>
        <mxCell id="iKDYDLjzP7U--BUIRFLF-20" value="Узнать время отправки последнего поезда" style="ellipse;whiteSpace=wrap;html=1;" vertex="1" parent="1">
          <mxGeometry x="210" y="340" width="140" height="60" as="geometry" />
        </mxCell>
        <mxCell id="iKDYDLjzP7U--BUIRFLF-21" style="rounded=0;orthogonalLoop=1;jettySize=auto;html=1;exitX=0;exitY=0.5;exitDx=0;exitDy=0;entryX=0.769;entryY=0.874;entryDx=0;entryDy=0;entryPerimeter=0;endArrow=block;endFill=0;" edge="1" parent="1" source="iKDYDLjzP7U--BUIRFLF-18" target="iKDYDLjzP7U--BUIRFLF-13">
          <mxGeometry relative="1" as="geometry" />
        </mxCell>
        <mxCell id="iKDYDLjzP7U--BUIRFLF-22" value="Обновить и отобразить информацию о конечной станции прибывающего поезда" style="ellipse;whiteSpace=wrap;html=1;fillColor=#dae8fc;strokeColor=#6c8ebf;" vertex="1" parent="1">
          <mxGeometry x="480" y="430" width="200" height="70" as="geometry" />
        </mxCell>
        <mxCell id="iKDYDLjzP7U--BUIRFLF-23" style="rounded=0;orthogonalLoop=1;jettySize=auto;html=1;exitX=1;exitY=0.5;exitDx=0;exitDy=0;entryX=0;entryY=0.3333333333333333;entryDx=0;entryDy=0;entryPerimeter=0;" edge="1" parent="1" source="iKDYDLjzP7U--BUIRFLF-11" target="iKDYDLjzP7U--BUIRFLF-6">
          <mxGeometry relative="1" as="geometry" />
        </mxCell>
        <mxCell id="iKDYDLjzP7U--BUIRFLF-24" style="rounded=0;orthogonalLoop=1;jettySize=auto;html=1;exitX=1;exitY=0.5;exitDx=0;exitDy=0;entryX=0.5;entryY=0.5;entryDx=0;entryDy=0;entryPerimeter=0;" edge="1" parent="1" source="iKDYDLjzP7U--BUIRFLF-12" target="iKDYDLjzP7U--BUIRFLF-6">
          <mxGeometry relative="1" as="geometry" />
        </mxCell>
        <mxCell id="iKDYDLjzP7U--BUIRFLF-25" style="edgeStyle=orthogonalEdgeStyle;rounded=0;orthogonalLoop=1;jettySize=auto;html=1;exitX=0;exitY=0.5;exitDx=0;exitDy=0;entryX=1;entryY=0.5;entryDx=0;entryDy=0;dashed=1;" edge="1" parent="1" source="iKDYDLjzP7U--BUIRFLF-26" target="iKDYDLjzP7U--BUIRFLF-27">
          <mxGeometry relative="1" as="geometry" />
        </mxCell>
        <mxCell id="iKDYDLjzP7U--BUIRFLF-26" value="Уведомить табло об отбытии поезда" style="ellipse;whiteSpace=wrap;html=1;fillColor=#dae8fc;strokeColor=#6c8ebf;" vertex="1" parent="1">
          <mxGeometry x="410" y="575" width="180" height="60" as="geometry" />
        </mxCell>
        <mxCell id="iKDYDLjzP7U--BUIRFLF-27" value="Записать время отбытия поезда" style="ellipse;whiteSpace=wrap;html=1;" vertex="1" parent="1">
          <mxGeometry x="210" y="575" width="140" height="60" as="geometry" />
        </mxCell>
        <mxCell id="iKDYDLjzP7U--BUIRFLF-28" value="include" style="text;html=1;align=center;verticalAlign=middle;whiteSpace=wrap;rounded=0;" vertex="1" parent="1">
          <mxGeometry x="350" y="570" width="60" height="30" as="geometry" />
        </mxCell>
        <mxCell id="iKDYDLjzP7U--BUIRFLF-29" style="rounded=0;orthogonalLoop=1;jettySize=auto;html=1;exitX=1;exitY=0.5;exitDx=0;exitDy=0;entryX=0;entryY=0.3333333333333333;entryDx=0;entryDy=0;entryPerimeter=0;" edge="1" parent="1" source="iKDYDLjzP7U--BUIRFLF-22" target="iKDYDLjzP7U--BUIRFLF-7">
          <mxGeometry relative="1" as="geometry">
            <Array as="points">
              <mxPoint x="800" y="465" />
            </Array>
          </mxGeometry>
        </mxCell>
        <mxCell id="iKDYDLjzP7U--BUIRFLF-30" style="rounded=0;orthogonalLoop=1;jettySize=auto;html=1;exitX=0.5;exitY=0;exitDx=0;exitDy=0;entryX=0;entryY=0.5;entryDx=0;entryDy=0;dashed=1;" edge="1" parent="1" source="iKDYDLjzP7U--BUIRFLF-32" target="iKDYDLjzP7U--BUIRFLF-11">
          <mxGeometry relative="1" as="geometry" />
        </mxCell>
        <mxCell id="iKDYDLjzP7U--BUIRFLF-31" style="rounded=0;orthogonalLoop=1;jettySize=auto;html=1;exitX=0;exitY=0;exitDx=0;exitDy=0;entryX=0;entryY=0.5;entryDx=0;entryDy=0;dashed=1;" edge="1" parent="1" source="iKDYDLjzP7U--BUIRFLF-32" target="iKDYDLjzP7U--BUIRFLF-36">
          <mxGeometry relative="1" as="geometry" />
        </mxCell>
        <mxCell id="iKDYDLjzP7U--BUIRFLF-32" value="Обновить основную информацию табло" style="ellipse;whiteSpace=wrap;html=1;fillColor=#dae8fc;strokeColor=#6c8ebf;" vertex="1" parent="1">
          <mxGeometry x="400" y="300" width="120" height="65" as="geometry" />
        </mxCell>
        <mxCell id="iKDYDLjzP7U--BUIRFLF-33" style="rounded=0;orthogonalLoop=1;jettySize=auto;html=1;exitX=1;exitY=0;exitDx=0;exitDy=0;entryX=0.1;entryY=0.793;entryDx=0;entryDy=0;entryPerimeter=0;dashed=1;" edge="1" parent="1" source="iKDYDLjzP7U--BUIRFLF-32" target="iKDYDLjzP7U--BUIRFLF-12">
          <mxGeometry relative="1" as="geometry" />
        </mxCell>
        <mxCell id="iKDYDLjzP7U--BUIRFLF-34" value="include" style="text;html=1;align=center;verticalAlign=middle;whiteSpace=wrap;rounded=0;" vertex="1" parent="1">
          <mxGeometry x="520" y="230" width="60" height="30" as="geometry" />
        </mxCell>
        <mxCell id="iKDYDLjzP7U--BUIRFLF-35" value="include" style="text;html=1;align=center;verticalAlign=middle;whiteSpace=wrap;rounded=0;" vertex="1" parent="1">
          <mxGeometry x="501" y="143" width="60" height="30" as="geometry" />
        </mxCell>
        <mxCell id="iKDYDLjzP7U--BUIRFLF-36" value="Обновить и отобразить текущее время" style="ellipse;whiteSpace=wrap;html=1;" vertex="1" parent="1">
          <mxGeometry x="520" y="-5" width="140" height="60" as="geometry" />
        </mxCell>
        <mxCell id="iKDYDLjzP7U--BUIRFLF-37" value="include" style="text;html=1;align=center;verticalAlign=middle;whiteSpace=wrap;rounded=0;" vertex="1" parent="1">
          <mxGeometry x="500" y="55" width="60" height="30" as="geometry" />
        </mxCell>
        <mxCell id="iKDYDLjzP7U--BUIRFLF-38" style="rounded=0;orthogonalLoop=1;jettySize=auto;html=1;exitX=1;exitY=0.5;exitDx=0;exitDy=0;entryX=0.25;entryY=0.1;entryDx=0;entryDy=0;entryPerimeter=0;" edge="1" parent="1" source="iKDYDLjzP7U--BUIRFLF-36" target="iKDYDLjzP7U--BUIRFLF-6">
          <mxGeometry relative="1" as="geometry" />
        </mxCell>
        <mxCell id="iKDYDLjzP7U--BUIRFLF-39" value="Варианты использования: обновить основную информацию табло&#xa;Описание: прецедент предназначен для обновления основной информации табло по таймеру&#xa;Цель: обновить данные для отображения информации на табло&#xa;Актеры: таймер, пункт управления&#xa;Триггер: тик таймера&#xa;Предусловие: у табло есть постоянное питание, таймер исправно работает&#xa;Постусловие: табло успешно обратилось к ПУ и вывело информацию" style="text;whiteSpace=wrap;" vertex="1" parent="1">
          <mxGeometry x="30" y="720" width="750" height="120" as="geometry" />
        </mxCell>
        <mxCell id="iKDYDLjzP7U--BUIRFLF-40" value="запросить данные о нарушениях времени" style="ellipse;whiteSpace=wrap;html=1;fillColor=#dae8fc;strokeColor=#6c8ebf;" vertex="1" parent="1">
          <mxGeometry x="550" y="250" width="140" height="60" as="geometry" />
        </mxCell>
        <mxCell id="iKDYDLjzP7U--BUIRFLF-41" style="rounded=0;orthogonalLoop=1;jettySize=auto;html=1;exitX=0;exitY=1;exitDx=0;exitDy=0;exitPerimeter=0;entryX=0.749;entryY=0.054;entryDx=0;entryDy=0;entryPerimeter=0;" edge="1" parent="1" source="iKDYDLjzP7U--BUIRFLF-6" target="iKDYDLjzP7U--BUIRFLF-40">
          <mxGeometry relative="1" as="geometry" />
        </mxCell>
        <mxCell id="iKDYDLjzP7U--BUIRFLF-42" style="rounded=0;orthogonalLoop=1;jettySize=auto;html=1;exitX=1;exitY=0.5;exitDx=0;exitDy=0;entryX=0.25;entryY=0.1;entryDx=0;entryDy=0;entryPerimeter=0;" edge="1" parent="1" source="iKDYDLjzP7U--BUIRFLF-40" target="iKDYDLjzP7U--BUIRFLF-7">
          <mxGeometry relative="1" as="geometry">
            <Array as="points">
              <mxPoint x="810" y="280" />
            </Array>
          </mxGeometry>
        </mxCell>
        <mxCell id="iKDYDLjzP7U--BUIRFLF-43" value="Таймер" style="rounded=0;whiteSpace=wrap;html=1;" vertex="1" parent="1">
          <mxGeometry x="30" y="840" width="250" height="30" as="geometry" />
        </mxCell>
        <mxCell id="iKDYDLjzP7U--BUIRFLF-44" value="Пункт управления" style="rounded=0;whiteSpace=wrap;html=1;" vertex="1" parent="1">
          <mxGeometry x="530" y="840" width="250" height="30" as="geometry" />
        </mxCell>
        <mxCell id="iKDYDLjzP7U--BUIRFLF-45" value="1.Таймер подает тик для обновления информации (например каждые 20 секунд)" style="rounded=0;whiteSpace=wrap;html=1;" vertex="1" parent="1">
          <mxGeometry x="30" y="870" width="250" height="60" as="geometry" />
        </mxCell>
        <mxCell id="iKDYDLjzP7U--BUIRFLF-46" value="" style="rounded=0;whiteSpace=wrap;html=1;" vertex="1" parent="1">
          <mxGeometry x="530" y="870" width="250" height="60" as="geometry" />
        </mxCell>
        <mxCell id="iKDYDLjzP7U--BUIRFLF-47" value="" style="rounded=0;whiteSpace=wrap;html=1;" vertex="1" parent="1">
          <mxGeometry x="30" y="930" width="250" height="60" as="geometry" />
        </mxCell>
        <mxCell id="iKDYDLjzP7U--BUIRFLF-48" value="" style="rounded=0;whiteSpace=wrap;html=1;" vertex="1" parent="1">
          <mxGeometry x="530" y="930" width="250" height="60" as="geometry" />
        </mxCell>
        <mxCell id="iKDYDLjzP7U--BUIRFLF-49" value="" style="rounded=0;whiteSpace=wrap;html=1;" vertex="1" parent="1">
          <mxGeometry x="30" y="990" width="250" height="60" as="geometry" />
        </mxCell>
        <mxCell id="iKDYDLjzP7U--BUIRFLF-50" value="3.Пункт управления формирует отчет с требуемыми данными и отправляет их в процессор табло" style="rounded=0;whiteSpace=wrap;html=1;" vertex="1" parent="1">
          <mxGeometry x="530" y="990" width="250" height="60" as="geometry" />
        </mxCell>
        <mxCell id="iKDYDLjzP7U--BUIRFLF-51" value="" style="rounded=0;whiteSpace=wrap;html=1;" vertex="1" parent="1">
          <mxGeometry x="30" y="1050" width="250" height="60" as="geometry" />
        </mxCell>
        <mxCell id="iKDYDLjzP7U--BUIRFLF-52" value="" style="rounded=0;whiteSpace=wrap;html=1;" vertex="1" parent="1">
          <mxGeometry x="530" y="1050" width="250" height="60" as="geometry" />
        </mxCell>
        <mxCell id="iKDYDLjzP7U--BUIRFLF-53" value="" style="rounded=0;whiteSpace=wrap;html=1;" vertex="1" parent="1">
          <mxGeometry x="30" y="1110" width="250" height="60" as="geometry" />
        </mxCell>
        <mxCell id="iKDYDLjzP7U--BUIRFLF-54" value="" style="rounded=0;whiteSpace=wrap;html=1;" vertex="1" parent="1">
          <mxGeometry x="530" y="1110" width="250" height="60" as="geometry" />
        </mxCell>
        <mxCell id="iKDYDLjzP7U--BUIRFLF-55" value="Процессор табло (связующее звено)" style="rounded=0;whiteSpace=wrap;html=1;" vertex="1" parent="1">
          <mxGeometry x="280" y="840" width="250" height="30" as="geometry" />
        </mxCell>
        <mxCell id="iKDYDLjzP7U--BUIRFLF-56" value="" style="rounded=0;whiteSpace=wrap;html=1;" vertex="1" parent="1">
          <mxGeometry x="280" y="870" width="250" height="60" as="geometry" />
        </mxCell>
        <mxCell id="iKDYDLjzP7U--BUIRFLF-57" value="2. Процессор принимает запрос на обновление информации и обращается к пункту управления, ждет 10 секунд" style="rounded=0;whiteSpace=wrap;html=1;" vertex="1" parent="1">
          <mxGeometry x="280" y="930" width="250" height="60" as="geometry" />
        </mxCell>
        <mxCell id="iKDYDLjzP7U--BUIRFLF-58" value="" style="rounded=0;whiteSpace=wrap;html=1;" vertex="1" parent="1">
          <mxGeometry x="280" y="990" width="250" height="60" as="geometry" />
        </mxCell>
        <mxCell id="iKDYDLjzP7U--BUIRFLF-59" value="4. Процессор табло получает отчет и обновляет данные табло &lt;font style=&quot;color: rgb(255, 0, 0);&quot;&gt;(4А)&lt;/font&gt;" style="rounded=0;whiteSpace=wrap;html=1;" vertex="1" parent="1">
          <mxGeometry x="280" y="1050" width="250" height="60" as="geometry" />
        </mxCell>
        <mxCell id="iKDYDLjzP7U--BUIRFLF-60" value="5. Процессор табло отображает новую информацию" style="rounded=0;whiteSpace=wrap;html=1;" vertex="1" parent="1">
          <mxGeometry x="280" y="1110" width="250" height="60" as="geometry" />
        </mxCell>
        <mxCell id="iKDYDLjzP7U--BUIRFLF-61" value="4А Альтернативный поток" style="text;html=1;align=center;verticalAlign=middle;whiteSpace=wrap;rounded=0;" vertex="1" parent="1">
          <mxGeometry x="30" y="1170" width="750" height="30" as="geometry" />
        </mxCell>
        <mxCell id="iKDYDLjzP7U--BUIRFLF-62" value="Таймер" style="rounded=0;whiteSpace=wrap;html=1;" vertex="1" parent="1">
          <mxGeometry x="30" y="1200" width="250" height="30" as="geometry" />
        </mxCell>
        <mxCell id="iKDYDLjzP7U--BUIRFLF-63" value="Пункт управления" style="rounded=0;whiteSpace=wrap;html=1;" vertex="1" parent="1">
          <mxGeometry x="530" y="1200" width="250" height="30" as="geometry" />
        </mxCell>
        <mxCell id="iKDYDLjzP7U--BUIRFLF-64" value="1.Таймер подает тик для обновления информации (например каждые 10 секунд)" style="rounded=0;whiteSpace=wrap;html=1;" vertex="1" parent="1">
          <mxGeometry x="30" y="1230" width="250" height="60" as="geometry" />
        </mxCell>
        <mxCell id="iKDYDLjzP7U--BUIRFLF-65" value="" style="rounded=0;whiteSpace=wrap;html=1;" vertex="1" parent="1">
          <mxGeometry x="530" y="1230" width="250" height="60" as="geometry" />
        </mxCell>
        <mxCell id="iKDYDLjzP7U--BUIRFLF-66" value="" style="rounded=0;whiteSpace=wrap;html=1;" vertex="1" parent="1">
          <mxGeometry x="30" y="1290" width="250" height="60" as="geometry" />
        </mxCell>
        <mxCell id="iKDYDLjzP7U--BUIRFLF-67" value="" style="rounded=0;whiteSpace=wrap;html=1;" vertex="1" parent="1">
          <mxGeometry x="530" y="1290" width="250" height="60" as="geometry" />
        </mxCell>
        <mxCell id="iKDYDLjzP7U--BUIRFLF-68" value="" style="rounded=0;whiteSpace=wrap;html=1;" vertex="1" parent="1">
          <mxGeometry x="30" y="1350" width="250" height="60" as="geometry" />
        </mxCell>
        <mxCell id="iKDYDLjzP7U--BUIRFLF-69" value="3.Пункт управления не отвечает на запрос" style="rounded=0;whiteSpace=wrap;html=1;" vertex="1" parent="1">
          <mxGeometry x="530" y="1350" width="250" height="60" as="geometry" />
        </mxCell>
        <mxCell id="iKDYDLjzP7U--BUIRFLF-70" value="" style="rounded=0;whiteSpace=wrap;html=1;" vertex="1" parent="1">
          <mxGeometry x="30" y="1410" width="250" height="60" as="geometry" />
        </mxCell>
        <mxCell id="iKDYDLjzP7U--BUIRFLF-71" value="" style="rounded=0;whiteSpace=wrap;html=1;" vertex="1" parent="1">
          <mxGeometry x="530" y="1410" width="250" height="60" as="geometry" />
        </mxCell>
        <mxCell id="iKDYDLjzP7U--BUIRFLF-72" value="Процессор табло (связующее звено)" style="rounded=0;whiteSpace=wrap;html=1;" vertex="1" parent="1">
          <mxGeometry x="280" y="1200" width="250" height="30" as="geometry" />
        </mxCell>
        <mxCell id="iKDYDLjzP7U--BUIRFLF-73" value="" style="rounded=0;whiteSpace=wrap;html=1;" vertex="1" parent="1">
          <mxGeometry x="280" y="1230" width="250" height="60" as="geometry" />
        </mxCell>
        <mxCell id="iKDYDLjzP7U--BUIRFLF-74" value="2. Процессор принимает запрос на обновление информации и обращается к пункту управления, ждет 10 секунд" style="rounded=0;whiteSpace=wrap;html=1;" vertex="1" parent="1">
          <mxGeometry x="280" y="1290" width="250" height="60" as="geometry" />
        </mxCell>
        <mxCell id="iKDYDLjzP7U--BUIRFLF-75" value="" style="rounded=0;whiteSpace=wrap;html=1;" vertex="1" parent="1">
          <mxGeometry x="280" y="1350" width="250" height="60" as="geometry" />
        </mxCell>
        <mxCell id="iKDYDLjzP7U--BUIRFLF-76" value="4. Процессор табло, НЕ ПОЛУЧИВ отчет, оставляет старую информацию и ничего не трогает" style="rounded=0;whiteSpace=wrap;html=1;" vertex="1" parent="1">
          <mxGeometry x="280" y="1410" width="250" height="60" as="geometry" />
        </mxCell>
        <mxCell id="iKDYDLjzP7U--BUIRFLF-77" value="Варианты использования: запросить данные о нарушениях времени&#xa;Описание: прецедент предназначен для обновления данных пункта управления о нарушениях времени&#xa;Цель: обновить данные расписания в пункте управления&#xa;Актеры: пункт управления, память табло&#xa;Триггер: запрос из пункта управления&#xa;Предусловие: у табло есть постоянное питание&#xa;Постусловие: пункт управления успешно обновил данные расписания об опозданиях поездов" style="text;whiteSpace=wrap;" vertex="1" parent="1">
          <mxGeometry x="827" y="720" width="750" height="120" as="geometry" />
        </mxCell>
        <mxCell id="iKDYDLjzP7U--BUIRFLF-78" value="Пункт управления" style="rounded=0;whiteSpace=wrap;html=1;" vertex="1" parent="1">
          <mxGeometry x="827" y="840" width="250" height="30" as="geometry" />
        </mxCell>
        <mxCell id="iKDYDLjzP7U--BUIRFLF-79" value="Память табло" style="rounded=0;whiteSpace=wrap;html=1;" vertex="1" parent="1">
          <mxGeometry x="1327" y="840" width="250" height="30" as="geometry" />
        </mxCell>
        <mxCell id="iKDYDLjzP7U--BUIRFLF-80" value="1. Пункт управления создает запрос о нарушениях расписания к табло" style="rounded=0;whiteSpace=wrap;html=1;" vertex="1" parent="1">
          <mxGeometry x="827" y="870" width="250" height="60" as="geometry" />
        </mxCell>
        <mxCell id="iKDYDLjzP7U--BUIRFLF-81" value="" style="rounded=0;whiteSpace=wrap;html=1;" vertex="1" parent="1">
          <mxGeometry x="1327" y="870" width="250" height="60" as="geometry" />
        </mxCell>
        <mxCell id="iKDYDLjzP7U--BUIRFLF-82" value="" style="rounded=0;whiteSpace=wrap;html=1;" vertex="1" parent="1">
          <mxGeometry x="827" y="930" width="250" height="60" as="geometry" />
        </mxCell>
        <mxCell id="iKDYDLjzP7U--BUIRFLF-83" value="" style="rounded=0;whiteSpace=wrap;html=1;" vertex="1" parent="1">
          <mxGeometry x="1327" y="930" width="250" height="60" as="geometry" />
        </mxCell>
        <mxCell id="iKDYDLjzP7U--BUIRFLF-84" value="" style="rounded=0;whiteSpace=wrap;html=1;" vertex="1" parent="1">
          <mxGeometry x="827" y="990" width="250" height="60" as="geometry" />
        </mxCell>
        <mxCell id="iKDYDLjzP7U--BUIRFLF-85" value="3. Память возвращает данные о нарушениях расписания" style="rounded=0;whiteSpace=wrap;html=1;" vertex="1" parent="1">
          <mxGeometry x="1327" y="990" width="250" height="60" as="geometry" />
        </mxCell>
        <mxCell id="iKDYDLjzP7U--BUIRFLF-86" value="" style="rounded=0;whiteSpace=wrap;html=1;" vertex="1" parent="1">
          <mxGeometry x="827" y="1050" width="250" height="60" as="geometry" />
        </mxCell>
        <mxCell id="iKDYDLjzP7U--BUIRFLF-87" value="" style="rounded=0;whiteSpace=wrap;html=1;" vertex="1" parent="1">
          <mxGeometry x="1327" y="1050" width="250" height="60" as="geometry" />
        </mxCell>
        <mxCell id="iKDYDLjzP7U--BUIRFLF-88" value="" style="rounded=0;whiteSpace=wrap;html=1;" vertex="1" parent="1">
          <mxGeometry x="827" y="1110" width="250" height="60" as="geometry" />
        </mxCell>
        <mxCell id="iKDYDLjzP7U--BUIRFLF-89" value="" style="rounded=0;whiteSpace=wrap;html=1;" vertex="1" parent="1">
          <mxGeometry x="1327" y="1110" width="250" height="60" as="geometry" />
        </mxCell>
        <mxCell id="iKDYDLjzP7U--BUIRFLF-90" value="Процессор табло (связующее звено)" style="rounded=0;whiteSpace=wrap;html=1;" vertex="1" parent="1">
          <mxGeometry x="1077" y="840" width="250" height="30" as="geometry" />
        </mxCell>
        <mxCell id="iKDYDLjzP7U--BUIRFLF-91" value="" style="rounded=0;whiteSpace=wrap;html=1;" vertex="1" parent="1">
          <mxGeometry x="1077" y="870" width="250" height="60" as="geometry" />
        </mxCell>
        <mxCell id="iKDYDLjzP7U--BUIRFLF-92" value="2. Процессор табло принимает запрос и обращается к памяти за нарушениями расписания, ждет 10 секунд" style="rounded=0;whiteSpace=wrap;html=1;" vertex="1" parent="1">
          <mxGeometry x="1077" y="930" width="250" height="60" as="geometry" />
        </mxCell>
        <mxCell id="iKDYDLjzP7U--BUIRFLF-93" value="" style="rounded=0;whiteSpace=wrap;html=1;" vertex="1" parent="1">
          <mxGeometry x="1077" y="990" width="250" height="60" as="geometry" />
        </mxCell>
        <mxCell id="iKDYDLjzP7U--BUIRFLF-94" value="4. Процессор табло получает данные из памяти и формирует отчет &lt;font style=&quot;color: rgb(255, 0, 0);&quot;&gt;(4А)&lt;/font&gt;" style="rounded=0;whiteSpace=wrap;html=1;" vertex="1" parent="1">
          <mxGeometry x="1077" y="1050" width="250" height="60" as="geometry" />
        </mxCell>
        <mxCell id="iKDYDLjzP7U--BUIRFLF-95" value="5. Процессор табло отправляет отчет о нарушениях пункту управления" style="rounded=0;whiteSpace=wrap;html=1;" vertex="1" parent="1">
          <mxGeometry x="1077" y="1110" width="250" height="60" as="geometry" />
        </mxCell>
        <mxCell id="iKDYDLjzP7U--BUIRFLF-96" value="4А Альтернативный поток" style="text;html=1;align=center;verticalAlign=middle;whiteSpace=wrap;rounded=0;" vertex="1" parent="1">
          <mxGeometry x="827" y="1290" width="750" height="30" as="geometry" />
        </mxCell>
        <mxCell id="iKDYDLjzP7U--BUIRFLF-97" value="6. Пункт управления получает отчет о нарушениях" style="rounded=0;whiteSpace=wrap;html=1;" vertex="1" parent="1">
          <mxGeometry x="827" y="1170" width="250" height="60" as="geometry" />
        </mxCell>
        <mxCell id="iKDYDLjzP7U--BUIRFLF-98" value="" style="rounded=0;whiteSpace=wrap;html=1;" vertex="1" parent="1">
          <mxGeometry x="1327" y="1170" width="250" height="60" as="geometry" />
        </mxCell>
        <mxCell id="iKDYDLjzP7U--BUIRFLF-99" value="" style="rounded=0;whiteSpace=wrap;html=1;" vertex="1" parent="1">
          <mxGeometry x="1077" y="1170" width="250" height="60" as="geometry" />
        </mxCell>
        <mxCell id="iKDYDLjzP7U--BUIRFLF-100" value="7. Пункт управления обновляет данные о расписании в БД" style="rounded=0;whiteSpace=wrap;html=1;" vertex="1" parent="1">
          <mxGeometry x="827" y="1230" width="250" height="60" as="geometry" />
        </mxCell>
        <mxCell id="iKDYDLjzP7U--BUIRFLF-101" value="" style="rounded=0;whiteSpace=wrap;html=1;" vertex="1" parent="1">
          <mxGeometry x="1327" y="1230" width="250" height="60" as="geometry" />
        </mxCell>
        <mxCell id="iKDYDLjzP7U--BUIRFLF-102" value="" style="rounded=0;whiteSpace=wrap;html=1;" vertex="1" parent="1">
          <mxGeometry x="1077" y="1230" width="250" height="60" as="geometry" />
        </mxCell>
        <mxCell id="iKDYDLjzP7U--BUIRFLF-103" value="Пункт управления" style="rounded=0;whiteSpace=wrap;html=1;" vertex="1" parent="1">
          <mxGeometry x="827" y="1320" width="250" height="30" as="geometry" />
        </mxCell>
        <mxCell id="iKDYDLjzP7U--BUIRFLF-104" value="Память табло" style="rounded=0;whiteSpace=wrap;html=1;" vertex="1" parent="1">
          <mxGeometry x="1327" y="1320" width="250" height="30" as="geometry" />
        </mxCell>
        <mxCell id="iKDYDLjzP7U--BUIRFLF-105" value="1. Пункт управления создает запрос о нарушениях расписания к табло" style="rounded=0;whiteSpace=wrap;html=1;" vertex="1" parent="1">
          <mxGeometry x="827" y="1350" width="250" height="60" as="geometry" />
        </mxCell>
        <mxCell id="iKDYDLjzP7U--BUIRFLF-106" value="" style="rounded=0;whiteSpace=wrap;html=1;" vertex="1" parent="1">
          <mxGeometry x="1327" y="1350" width="250" height="60" as="geometry" />
        </mxCell>
        <mxCell id="iKDYDLjzP7U--BUIRFLF-107" value="" style="rounded=0;whiteSpace=wrap;html=1;" vertex="1" parent="1">
          <mxGeometry x="827" y="1410" width="250" height="60" as="geometry" />
        </mxCell>
        <mxCell id="iKDYDLjzP7U--BUIRFLF-108" value="" style="rounded=0;whiteSpace=wrap;html=1;" vertex="1" parent="1">
          <mxGeometry x="1327" y="1410" width="250" height="60" as="geometry" />
        </mxCell>
        <mxCell id="iKDYDLjzP7U--BUIRFLF-109" value="" style="rounded=0;whiteSpace=wrap;html=1;" vertex="1" parent="1">
          <mxGeometry x="827" y="1470" width="250" height="60" as="geometry" />
        </mxCell>
        <mxCell id="iKDYDLjzP7U--BUIRFLF-110" value="3. Память возвращает данные о нарушениях расписания" style="rounded=0;whiteSpace=wrap;html=1;" vertex="1" parent="1">
          <mxGeometry x="1327" y="1470" width="250" height="60" as="geometry" />
        </mxCell>
        <mxCell id="iKDYDLjzP7U--BUIRFLF-111" value="" style="rounded=0;whiteSpace=wrap;html=1;" vertex="1" parent="1">
          <mxGeometry x="827" y="1530" width="250" height="60" as="geometry" />
        </mxCell>
        <mxCell id="iKDYDLjzP7U--BUIRFLF-112" value="" style="rounded=0;whiteSpace=wrap;html=1;" vertex="1" parent="1">
          <mxGeometry x="1327" y="1530" width="250" height="60" as="geometry" />
        </mxCell>
        <mxCell id="iKDYDLjzP7U--BUIRFLF-113" value="" style="rounded=0;whiteSpace=wrap;html=1;" vertex="1" parent="1">
          <mxGeometry x="827" y="1590" width="250" height="60" as="geometry" />
        </mxCell>
        <mxCell id="iKDYDLjzP7U--BUIRFLF-114" value="" style="rounded=0;whiteSpace=wrap;html=1;" vertex="1" parent="1">
          <mxGeometry x="1327" y="1590" width="250" height="60" as="geometry" />
        </mxCell>
        <mxCell id="iKDYDLjzP7U--BUIRFLF-115" value="Процессор табло (связующее звено)" style="rounded=0;whiteSpace=wrap;html=1;" vertex="1" parent="1">
          <mxGeometry x="1077" y="1320" width="250" height="30" as="geometry" />
        </mxCell>
        <mxCell id="iKDYDLjzP7U--BUIRFLF-116" value="" style="rounded=0;whiteSpace=wrap;html=1;" vertex="1" parent="1">
          <mxGeometry x="1077" y="1350" width="250" height="60" as="geometry" />
        </mxCell>
        <mxCell id="iKDYDLjzP7U--BUIRFLF-117" value="2. Процессор табло принимает запрос и обращается к памяти за нарушениями расписания, ждет 10 секунд" style="rounded=0;whiteSpace=wrap;html=1;" vertex="1" parent="1">
          <mxGeometry x="1077" y="1410" width="250" height="60" as="geometry" />
        </mxCell>
        <mxCell id="iKDYDLjzP7U--BUIRFLF-118" value="" style="rounded=0;whiteSpace=wrap;html=1;" vertex="1" parent="1">
          <mxGeometry x="1077" y="1470" width="250" height="60" as="geometry" />
        </mxCell>
        <mxCell id="iKDYDLjzP7U--BUIRFLF-119" value="4. Процессор табло НЕ ПОЛУЧАЕТ данные из памяти и формирует пустой отчет" style="rounded=0;whiteSpace=wrap;html=1;" vertex="1" parent="1">
          <mxGeometry x="1077" y="1530" width="250" height="60" as="geometry" />
        </mxCell>
        <mxCell id="iKDYDLjzP7U--BUIRFLF-120" value="5. Процессор табло отправляет пустой&amp;nbsp; отчет о нарушениях пункту управления" style="rounded=0;whiteSpace=wrap;html=1;" vertex="1" parent="1">
          <mxGeometry x="1077" y="1590" width="250" height="60" as="geometry" />
        </mxCell>
        <mxCell id="iKDYDLjzP7U--BUIRFLF-121" value="6. Пункт управления получает пустой отчет о нарушениях" style="rounded=0;whiteSpace=wrap;html=1;" vertex="1" parent="1">
          <mxGeometry x="827" y="1650" width="250" height="60" as="geometry" />
        </mxCell>
        <mxCell id="iKDYDLjzP7U--BUIRFLF-122" value="" style="rounded=0;whiteSpace=wrap;html=1;" vertex="1" parent="1">
          <mxGeometry x="1327" y="1650" width="250" height="60" as="geometry" />
        </mxCell>
        <mxCell id="iKDYDLjzP7U--BUIRFLF-123" value="" style="rounded=0;whiteSpace=wrap;html=1;" vertex="1" parent="1">
          <mxGeometry x="1077" y="1650" width="250" height="60" as="geometry" />
        </mxCell>
        <mxCell id="iKDYDLjzP7U--BUIRFLF-124" value="7. Пункт управления обновляет данные о расписании в БД пустым отчетом" style="rounded=0;whiteSpace=wrap;html=1;" vertex="1" parent="1">
          <mxGeometry x="827" y="1710" width="250" height="60" as="geometry" />
        </mxCell>
        <mxCell id="iKDYDLjzP7U--BUIRFLF-125" value="" style="rounded=0;whiteSpace=wrap;html=1;" vertex="1" parent="1">
          <mxGeometry x="1327" y="1710" width="250" height="60" as="geometry" />
        </mxCell>
        <mxCell id="iKDYDLjzP7U--BUIRFLF-126" value="" style="rounded=0;whiteSpace=wrap;html=1;" vertex="1" parent="1">
          <mxGeometry x="1077" y="1710" width="250" height="60" as="geometry" />
        </mxCell>
        <mxCell id="iKDYDLjzP7U--BUIRFLF-127" value="Варианты использования: обновить и отобразить информацию о конечной станции прибывающего поезда&#xa;Описание: прецедент предназначен для обновления данных конечной станции прибывающего поезда&#xa;Цель: обновить и отобразить данные конечной станции у поезда&#xa;Актеры: датчик конкретной станции, память табло&#xa;Триггер: датчик отправляет сигнал при прибытии поезда&#xa;Предусловие: у табло есть постоянное питание, датчик работает&#xa;Постусловие: данные о конечной станции обновлены и отображены на экране" style="text;whiteSpace=wrap;" vertex="1" parent="1">
          <mxGeometry x="1620" y="720" width="750" height="120" as="geometry" />
        </mxCell>
        <mxCell id="iKDYDLjzP7U--BUIRFLF-128" value="Датчик конкретной станции" style="rounded=0;whiteSpace=wrap;html=1;" vertex="1" parent="1">
          <mxGeometry x="1620" y="840" width="250" height="30" as="geometry" />
        </mxCell>
        <mxCell id="iKDYDLjzP7U--BUIRFLF-129" value="Память табло" style="rounded=0;whiteSpace=wrap;html=1;" vertex="1" parent="1">
          <mxGeometry x="2120" y="840" width="250" height="30" as="geometry" />
        </mxCell>
        <mxCell id="iKDYDLjzP7U--BUIRFLF-130" value="1. Датчик оповещает табло о прибытии поезда" style="rounded=0;whiteSpace=wrap;html=1;" vertex="1" parent="1">
          <mxGeometry x="1620" y="870" width="250" height="60" as="geometry" />
        </mxCell>
        <mxCell id="iKDYDLjzP7U--BUIRFLF-131" value="" style="rounded=0;whiteSpace=wrap;html=1;" vertex="1" parent="1">
          <mxGeometry x="2120" y="870" width="250" height="60" as="geometry" />
        </mxCell>
        <mxCell id="iKDYDLjzP7U--BUIRFLF-132" value="Процессор табло (связующее звено)" style="rounded=0;whiteSpace=wrap;html=1;" vertex="1" parent="1">
          <mxGeometry x="1870" y="840" width="250" height="30" as="geometry" />
        </mxCell>
        <mxCell id="iKDYDLjzP7U--BUIRFLF-133" value="" style="rounded=0;whiteSpace=wrap;html=1;" vertex="1" parent="1">
          <mxGeometry x="1870" y="870" width="250" height="60" as="geometry" />
        </mxCell>
        <mxCell id="iKDYDLjzP7U--BUIRFLF-134" value="" style="rounded=0;whiteSpace=wrap;html=1;" vertex="1" parent="1">
          <mxGeometry x="1620" y="930" width="250" height="60" as="geometry" />
        </mxCell>
        <mxCell id="iKDYDLjzP7U--BUIRFLF-135" value="" style="rounded=0;whiteSpace=wrap;html=1;" vertex="1" parent="1">
          <mxGeometry x="2120" y="930" width="250" height="60" as="geometry" />
        </mxCell>
        <mxCell id="iKDYDLjzP7U--BUIRFLF-136" value="2. Процессор принимает оповещение датчика и обращается к памяти табло за информацией о поезде, ждет 10 секунд" style="rounded=0;whiteSpace=wrap;html=1;" vertex="1" parent="1">
          <mxGeometry x="1870" y="930" width="250" height="60" as="geometry" />
        </mxCell>
        <mxCell id="iKDYDLjzP7U--BUIRFLF-137" value="" style="rounded=0;whiteSpace=wrap;html=1;" vertex="1" parent="1">
          <mxGeometry x="1620" y="990" width="250" height="60" as="geometry" />
        </mxCell>
        <mxCell id="iKDYDLjzP7U--BUIRFLF-138" value="3. Память получает запрос, находит нужную инф., сохраняет результат &quot;true&quot; и возвращает информацию о поезде &lt;font style=&quot;color: rgb(255, 0, 0);&quot;&gt;(3А)&lt;/font&gt;" style="rounded=0;whiteSpace=wrap;html=1;" vertex="1" parent="1">
          <mxGeometry x="2120" y="990" width="250" height="60" as="geometry" />
        </mxCell>
        <mxCell id="iKDYDLjzP7U--BUIRFLF-139" value="" style="rounded=0;whiteSpace=wrap;html=1;" vertex="1" parent="1">
          <mxGeometry x="1870" y="990" width="250" height="60" as="geometry" />
        </mxCell>
        <mxCell id="iKDYDLjzP7U--BUIRFLF-140" value="" style="rounded=0;whiteSpace=wrap;html=1;" vertex="1" parent="1">
          <mxGeometry x="1620" y="1050" width="250" height="60" as="geometry" />
        </mxCell>
        <mxCell id="iKDYDLjzP7U--BUIRFLF-141" value="" style="rounded=0;whiteSpace=wrap;html=1;" vertex="1" parent="1">
          <mxGeometry x="2120" y="1050" width="250" height="60" as="geometry" />
        </mxCell>
        <mxCell id="iKDYDLjzP7U--BUIRFLF-142" value="4. Процессор получает информацию о поезде и выводит ее на табло" style="rounded=0;whiteSpace=wrap;html=1;" vertex="1" parent="1">
          <mxGeometry x="1870" y="1050" width="250" height="60" as="geometry" />
        </mxCell>
        <mxCell id="iKDYDLjzP7U--BUIRFLF-143" value="Датчик конкретной станции" style="rounded=0;whiteSpace=wrap;html=1;" vertex="1" parent="1">
          <mxGeometry x="1620" y="1140" width="250" height="30" as="geometry" />
        </mxCell>
        <mxCell id="iKDYDLjzP7U--BUIRFLF-144" value="Память табло" style="rounded=0;whiteSpace=wrap;html=1;" vertex="1" parent="1">
          <mxGeometry x="2120" y="1140" width="250" height="30" as="geometry" />
        </mxCell>
        <mxCell id="iKDYDLjzP7U--BUIRFLF-145" value="1. Датчик оповещает табло о прибытии поезда" style="rounded=0;whiteSpace=wrap;html=1;" vertex="1" parent="1">
          <mxGeometry x="1620" y="1170" width="250" height="60" as="geometry" />
        </mxCell>
        <mxCell id="iKDYDLjzP7U--BUIRFLF-146" value="" style="rounded=0;whiteSpace=wrap;html=1;" vertex="1" parent="1">
          <mxGeometry x="2120" y="1170" width="250" height="60" as="geometry" />
        </mxCell>
        <mxCell id="iKDYDLjzP7U--BUIRFLF-147" value="Процессор табло (связующее звено)" style="rounded=0;whiteSpace=wrap;html=1;" vertex="1" parent="1">
          <mxGeometry x="1870" y="1140" width="250" height="30" as="geometry" />
        </mxCell>
        <mxCell id="iKDYDLjzP7U--BUIRFLF-148" value="" style="rounded=0;whiteSpace=wrap;html=1;" vertex="1" parent="1">
          <mxGeometry x="1870" y="1170" width="250" height="60" as="geometry" />
        </mxCell>
        <mxCell id="iKDYDLjzP7U--BUIRFLF-149" value="" style="rounded=0;whiteSpace=wrap;html=1;" vertex="1" parent="1">
          <mxGeometry x="1620" y="1230" width="250" height="60" as="geometry" />
        </mxCell>
        <mxCell id="iKDYDLjzP7U--BUIRFLF-150" value="" style="rounded=0;whiteSpace=wrap;html=1;" vertex="1" parent="1">
          <mxGeometry x="2120" y="1230" width="250" height="60" as="geometry" />
        </mxCell>
        <mxCell id="iKDYDLjzP7U--BUIRFLF-151" value="2. Процессор принимает оповещение табло и обращается к памяти табло за информацией о поезде, ждет 10 секунд" style="rounded=0;whiteSpace=wrap;html=1;" vertex="1" parent="1">
          <mxGeometry x="1870" y="1230" width="250" height="60" as="geometry" />
        </mxCell>
        <mxCell id="iKDYDLjzP7U--BUIRFLF-152" value="" style="rounded=0;whiteSpace=wrap;html=1;" vertex="1" parent="1">
          <mxGeometry x="1620" y="1290" width="250" height="60" as="geometry" />
        </mxCell>
        <mxCell id="iKDYDLjzP7U--BUIRFLF-153" value="3. Память получает запрос, но не находит нужного поезда (поезд может быть служебным), сохраняет результат &quot;false&quot; и возвращает нулевую информацию" style="rounded=0;whiteSpace=wrap;html=1;" vertex="1" parent="1">
          <mxGeometry x="2120" y="1290" width="250" height="60" as="geometry" />
        </mxCell>
        <mxCell id="iKDYDLjzP7U--BUIRFLF-154" value="" style="rounded=0;whiteSpace=wrap;html=1;" vertex="1" parent="1">
          <mxGeometry x="1870" y="1290" width="250" height="60" as="geometry" />
        </mxCell>
        <mxCell id="iKDYDLjzP7U--BUIRFLF-155" value="" style="rounded=0;whiteSpace=wrap;html=1;" vertex="1" parent="1">
          <mxGeometry x="1620" y="1350" width="250" height="60" as="geometry" />
        </mxCell>
        <mxCell id="iKDYDLjzP7U--BUIRFLF-156" value="" style="rounded=0;whiteSpace=wrap;html=1;" vertex="1" parent="1">
          <mxGeometry x="2120" y="1350" width="250" height="60" as="geometry" />
        </mxCell>
        <mxCell id="iKDYDLjzP7U--BUIRFLF-157" value="4. Процессор получает пустую информацию и выводит на табло &quot;конечная станция неизвестна, обратитесь к сотрудникам станции&quot;" style="rounded=0;whiteSpace=wrap;html=1;" vertex="1" parent="1">
          <mxGeometry x="1870" y="1350" width="250" height="60" as="geometry" />
        </mxCell>
        <mxCell id="iKDYDLjzP7U--BUIRFLF-158" value="4А Альтернативный поток" style="text;html=1;align=center;verticalAlign=middle;whiteSpace=wrap;rounded=0;" vertex="1" parent="1">
          <mxGeometry x="1620" y="1110" width="750" height="30" as="geometry" />
        </mxCell>
        <mxCell id="iKDYDLjzP7U--BUIRFLF-159" value="Варианты использования: уведомить табло об отбытии поезда&#xa;Описание: прецедент предназначен для обновления и отображения информации о времени отбытия поезда&#xa;Цель: обновить в памяти данные и отобразить новые данные об отбытом поезде&#xa;Актеры: датчик конкретной станции, память табло&#xa;Триггер: датчик отправляет сигнал при отбытии поезда&#xa;Предусловие: у табло есть постоянное питание, датчик работает&#xa;Постусловие: данные о времени отбытия обновлены и отображены на экране" style="text;whiteSpace=wrap;" vertex="1" parent="1">
          <mxGeometry x="2410" y="720" width="750" height="120" as="geometry" />
        </mxCell>
        <mxCell id="iKDYDLjzP7U--BUIRFLF-160" style="edgeStyle=orthogonalEdgeStyle;rounded=0;orthogonalLoop=1;jettySize=auto;html=1;exitX=0.5;exitY=0;exitDx=0;exitDy=0;entryX=1;entryY=0.3333333333333333;entryDx=0;entryDy=0;entryPerimeter=0;" edge="1" parent="1" source="iKDYDLjzP7U--BUIRFLF-27" target="iKDYDLjzP7U--BUIRFLF-7">
          <mxGeometry relative="1" as="geometry">
            <Array as="points">
              <mxPoint x="280" y="510" />
              <mxPoint x="940" y="510" />
              <mxPoint x="940" y="350" />
            </Array>
          </mxGeometry>
        </mxCell>
        <mxCell id="iKDYDLjzP7U--BUIRFLF-161" value="Датчик конкретной станции" style="rounded=0;whiteSpace=wrap;html=1;" vertex="1" parent="1">
          <mxGeometry x="2410" y="840" width="250" height="30" as="geometry" />
        </mxCell>
        <mxCell id="iKDYDLjzP7U--BUIRFLF-162" value="Память табло" style="rounded=0;whiteSpace=wrap;html=1;" vertex="1" parent="1">
          <mxGeometry x="2910" y="840" width="250" height="30" as="geometry" />
        </mxCell>
        <mxCell id="iKDYDLjzP7U--BUIRFLF-163" value="1. Датчик оповещает табло об отбытии поезда" style="rounded=0;whiteSpace=wrap;html=1;" vertex="1" parent="1">
          <mxGeometry x="2410" y="870" width="250" height="60" as="geometry" />
        </mxCell>
        <mxCell id="iKDYDLjzP7U--BUIRFLF-164" value="" style="rounded=0;whiteSpace=wrap;html=1;" vertex="1" parent="1">
          <mxGeometry x="2910" y="870" width="250" height="60" as="geometry" />
        </mxCell>
        <mxCell id="iKDYDLjzP7U--BUIRFLF-165" value="Процессор табло (связующее звено)" style="rounded=0;whiteSpace=wrap;html=1;" vertex="1" parent="1">
          <mxGeometry x="2660" y="840" width="250" height="30" as="geometry" />
        </mxCell>
        <mxCell id="iKDYDLjzP7U--BUIRFLF-166" value="" style="rounded=0;whiteSpace=wrap;html=1;" vertex="1" parent="1">
          <mxGeometry x="2660" y="870" width="250" height="60" as="geometry" />
        </mxCell>
        <mxCell id="iKDYDLjzP7U--BUIRFLF-167" value="" style="rounded=0;whiteSpace=wrap;html=1;" vertex="1" parent="1">
          <mxGeometry x="2410" y="930" width="250" height="60" as="geometry" />
        </mxCell>
        <mxCell id="iKDYDLjzP7U--BUIRFLF-168" value="" style="rounded=0;whiteSpace=wrap;html=1;" vertex="1" parent="1">
          <mxGeometry x="2910" y="930" width="250" height="60" as="geometry" />
        </mxCell>
        <mxCell id="iKDYDLjzP7U--BUIRFLF-169" value="2. Процессор принимает оповещение датчика и обращается к памяти для записи новых данных о времени отбытия поезда, ждать 10 секунд" style="rounded=0;whiteSpace=wrap;html=1;" vertex="1" parent="1">
          <mxGeometry x="2660" y="930" width="250" height="60" as="geometry" />
        </mxCell>
        <mxCell id="iKDYDLjzP7U--BUIRFLF-170" value="" style="rounded=0;whiteSpace=wrap;html=1;" vertex="1" parent="1">
          <mxGeometry x="2410" y="990" width="250" height="60" as="geometry" />
        </mxCell>
        <mxCell id="iKDYDLjzP7U--BUIRFLF-171" value="&lt;font style=&quot;font-size: 9px;&quot;&gt;3. Память получает запрос&amp;nbsp;&lt;font style=&quot;color: rgb(255, 0, 0);&quot;&gt;(3A)&lt;/font&gt;, сверяется с переменной памяти о информации приехавшего поезда, видит &quot;true&quot;, записывает время, возвращает процессору время.&lt;br&gt;(при удачном возврате инф. датчика прибытия)&lt;/font&gt;" style="rounded=0;whiteSpace=wrap;html=1;" vertex="1" parent="1">
          <mxGeometry x="2910" y="990" width="250" height="60" as="geometry" />
        </mxCell>
        <mxCell id="iKDYDLjzP7U--BUIRFLF-172" value="" style="rounded=0;whiteSpace=wrap;html=1;" vertex="1" parent="1">
          <mxGeometry x="2660" y="990" width="250" height="60" as="geometry" />
        </mxCell>
        <mxCell id="iKDYDLjzP7U--BUIRFLF-173" value="" style="rounded=0;whiteSpace=wrap;html=1;" vertex="1" parent="1">
          <mxGeometry x="2410" y="1050" width="250" height="60" as="geometry" />
        </mxCell>
        <mxCell id="iKDYDLjzP7U--BUIRFLF-174" value="" style="rounded=0;whiteSpace=wrap;html=1;" vertex="1" parent="1">
          <mxGeometry x="2910" y="1050" width="250" height="60" as="geometry" />
        </mxCell>
        <mxCell id="iKDYDLjzP7U--BUIRFLF-175" value="4. Процессор получает информацию о времени отбытия и выводит ее на табло" style="rounded=0;whiteSpace=wrap;html=1;" vertex="1" parent="1">
          <mxGeometry x="2660" y="1050" width="250" height="60" as="geometry" />
        </mxCell>
        <mxCell id="iKDYDLjzP7U--BUIRFLF-176" value="Основная информация: текущее время, реклама, расписание" style="text;html=1;align=center;verticalAlign=middle;resizable=0;points=[];autosize=1;strokeColor=none;fillColor=none;" vertex="1" parent="1">
          <mxGeometry x="310" y="-50" width="370" height="30" as="geometry" />
        </mxCell>
        <mxCell id="iKDYDLjzP7U--BUIRFLF-177" value="&lt;font style=&quot;font-size: 48px;&quot;&gt;USE-CASE + SCENARIO&lt;/font&gt;" style="text;html=1;whiteSpace=wrap;strokeColor=none;fillColor=none;align=center;verticalAlign=middle;rounded=0;" vertex="1" parent="1">
          <mxGeometry x="1210" y="-120" width="700" height="30" as="geometry" />
        </mxCell>
        <mxCell id="iKDYDLjzP7U--BUIRFLF-178" value="&lt;span style=&quot;font-size: 48px;&quot;&gt;ACTIVITY DIAGRAM&lt;/span&gt;" style="text;html=1;whiteSpace=wrap;strokeColor=none;fillColor=none;align=center;verticalAlign=middle;rounded=0;" vertex="1" parent="1">
          <mxGeometry x="1210" y="1960" width="700" height="30" as="geometry" />
        </mxCell>
        <mxCell id="iKDYDLjzP7U--BUIRFLF-179" value="" style="rounded=0;whiteSpace=wrap;html=1;" vertex="1" parent="1">
          <mxGeometry y="2150" width="780" height="1130" as="geometry" />
        </mxCell>
        <mxCell id="iKDYDLjzP7U--BUIRFLF-180" value="&lt;font style=&quot;font-size: 20px;&quot;&gt;Таймер&lt;/font&gt;" style="text;html=1;whiteSpace=wrap;strokeColor=none;fillColor=none;align=center;verticalAlign=middle;rounded=0;" vertex="1" parent="1">
          <mxGeometry y="2150" width="260" height="30" as="geometry" />
        </mxCell>
        <mxCell id="iKDYDLjzP7U--BUIRFLF-181" value="" style="endArrow=none;dashed=1;html=1;rounded=0;entryX=0.333;entryY=-0.002;entryDx=0;entryDy=0;exitX=0.333;exitY=1.001;exitDx=0;exitDy=0;exitPerimeter=0;entryPerimeter=0;" edge="1" parent="1" source="iKDYDLjzP7U--BUIRFLF-179" target="iKDYDLjzP7U--BUIRFLF-179">
          <mxGeometry width="50" height="50" relative="1" as="geometry">
            <mxPoint x="260" y="2650.000000000001" as="sourcePoint" />
            <mxPoint x="260" y="2217" as="targetPoint" />
          </mxGeometry>
        </mxCell>
        <mxCell id="iKDYDLjzP7U--BUIRFLF-182" value="" style="endArrow=none;dashed=1;html=1;rounded=0;entryX=0.68;entryY=0;entryDx=0;entryDy=0;exitX=0.68;exitY=1.001;exitDx=0;exitDy=0;exitPerimeter=0;entryPerimeter=0;" edge="1" parent="1" source="iKDYDLjzP7U--BUIRFLF-179" target="iKDYDLjzP7U--BUIRFLF-179">
          <mxGeometry width="50" height="50" relative="1" as="geometry">
            <mxPoint x="530.58" y="2650.000000000001" as="sourcePoint" />
            <mxPoint x="530.5799999999996" y="2217" as="targetPoint" />
          </mxGeometry>
        </mxCell>
        <mxCell id="iKDYDLjzP7U--BUIRFLF-183" value="&lt;font style=&quot;font-size: 20px;&quot;&gt;Процессор&lt;/font&gt;" style="text;html=1;whiteSpace=wrap;strokeColor=none;fillColor=none;align=center;verticalAlign=middle;rounded=0;" vertex="1" parent="1">
          <mxGeometry x="260" y="2150" width="270" height="30" as="geometry" />
        </mxCell>
        <mxCell id="iKDYDLjzP7U--BUIRFLF-184" value="&lt;font style=&quot;font-size: 20px;&quot;&gt;Пункт управления&lt;/font&gt;" style="text;html=1;whiteSpace=wrap;strokeColor=none;fillColor=none;align=center;verticalAlign=middle;rounded=0;" vertex="1" parent="1">
          <mxGeometry x="530" y="2150" width="250" height="30" as="geometry" />
        </mxCell>
        <mxCell id="iKDYDLjzP7U--BUIRFLF-185" style="edgeStyle=orthogonalEdgeStyle;rounded=0;orthogonalLoop=1;jettySize=auto;html=1;exitX=1;exitY=0.5;exitDx=0;exitDy=0;entryX=0;entryY=0.5;entryDx=0;entryDy=0;endArrow=open;endFill=0;" edge="1" parent="1" source="iKDYDLjzP7U--BUIRFLF-186" target="iKDYDLjzP7U--BUIRFLF-187">
          <mxGeometry relative="1" as="geometry" />
        </mxCell>
        <mxCell id="iKDYDLjzP7U--BUIRFLF-186" value="&lt;font style=&quot;font-size: 16px;&quot;&gt;Подать тик&lt;/font&gt;" style="rounded=1;whiteSpace=wrap;html=1;" vertex="1" parent="1">
          <mxGeometry x="70" y="2290" width="120" height="60" as="geometry" />
        </mxCell>
        <mxCell id="iKDYDLjzP7U--BUIRFLF-187" value="&lt;font style=&quot;font-size: 16px;&quot;&gt;Принять запрос таймера&lt;/font&gt;" style="rounded=1;whiteSpace=wrap;html=1;" vertex="1" parent="1">
          <mxGeometry x="335" y="2290" width="120" height="60" as="geometry" />
        </mxCell>
        <mxCell id="iKDYDLjzP7U--BUIRFLF-188" style="edgeStyle=orthogonalEdgeStyle;rounded=0;orthogonalLoop=1;jettySize=auto;html=1;exitX=0.75;exitY=1;exitDx=0;exitDy=0;entryX=0.5;entryY=0;entryDx=0;entryDy=0;endArrow=open;endFill=0;" edge="1" parent="1" source="iKDYDLjzP7U--BUIRFLF-190" target="iKDYDLjzP7U--BUIRFLF-240">
          <mxGeometry relative="1" as="geometry" />
        </mxCell>
        <mxCell id="iKDYDLjzP7U--BUIRFLF-189" style="edgeStyle=orthogonalEdgeStyle;rounded=0;orthogonalLoop=1;jettySize=auto;html=1;exitX=0.198;exitY=0.89;exitDx=0;exitDy=0;entryX=0.5;entryY=0;entryDx=0;entryDy=0;exitPerimeter=0;endArrow=open;endFill=0;" edge="1" parent="1" source="iKDYDLjzP7U--BUIRFLF-190" target="iKDYDLjzP7U--BUIRFLF-385">
          <mxGeometry relative="1" as="geometry" />
        </mxCell>
        <mxCell id="iKDYDLjzP7U--BUIRFLF-190" value="" style="rounded=0;whiteSpace=wrap;html=1;fillColor=#1ba1e2;strokeColor=none;fontColor=#ffffff;" vertex="1" parent="1">
          <mxGeometry x="300" y="2500" width="450" height="10" as="geometry" />
        </mxCell>
        <mxCell id="iKDYDLjzP7U--BUIRFLF-191" value="&lt;span style=&quot;font-size: 16px;&quot;&gt;Подготовка отчета с данными&lt;/span&gt;" style="rounded=1;whiteSpace=wrap;html=1;" vertex="1" parent="1">
          <mxGeometry x="595" y="2633.97" width="120" height="60" as="geometry" />
        </mxCell>
        <mxCell id="iKDYDLjzP7U--BUIRFLF-192" value="&lt;span style=&quot;font-size: 16px;&quot;&gt;Ожидание &lt;br&gt;(10 секунд)&lt;/span&gt;" style="rounded=1;whiteSpace=wrap;html=1;" vertex="1" parent="1">
          <mxGeometry x="335" y="2640" width="120" height="60" as="geometry" />
        </mxCell>
        <mxCell id="iKDYDLjzP7U--BUIRFLF-193" style="edgeStyle=orthogonalEdgeStyle;rounded=0;orthogonalLoop=1;jettySize=auto;html=1;exitX=0.5;exitY=1;exitDx=0;exitDy=0;exitPerimeter=0;entryX=0.5;entryY=0;entryDx=0;entryDy=0;endArrow=open;endFill=0;" edge="1" parent="1" source="iKDYDLjzP7U--BUIRFLF-194" target="iKDYDLjzP7U--BUIRFLF-198">
          <mxGeometry relative="1" as="geometry" />
        </mxCell>
        <mxCell id="iKDYDLjzP7U--BUIRFLF-194" value="&lt;span style=&quot;font-size: 16px;&quot;&gt;Получение результата запроса&lt;/span&gt;" style="strokeWidth=2;html=1;shape=mxgraph.flowchart.stored_data;whiteSpace=wrap;container=0;fixDash=0;noLabel=0;portConstraintRotation=0;" vertex="1" parent="1">
          <mxGeometry x="340" y="2774.5" width="130" height="60" as="geometry" />
        </mxCell>
        <mxCell id="iKDYDLjzP7U--BUIRFLF-195" value="&lt;span style=&quot;font-size: 16px; text-wrap-mode: wrap;&quot;&gt;Отправка &lt;br&gt;запроса на &lt;br&gt;обновление к ПУ&lt;/span&gt;" style="html=1;shadow=0;dashed=0;align=center;verticalAlign=middle;shape=mxgraph.arrows2.arrow;dy=0;dx=30;notch=30;" vertex="1" parent="1">
          <mxGeometry x="320" y="2380" width="170" height="80" as="geometry" />
        </mxCell>
        <mxCell id="iKDYDLjzP7U--BUIRFLF-196" value="" style="rounded=0;whiteSpace=wrap;html=1;fillColor=#1ba1e2;strokeColor=none;fontColor=#ffffff;" vertex="1" parent="1">
          <mxGeometry x="300" y="2733" width="450" height="10" as="geometry" />
        </mxCell>
        <mxCell id="iKDYDLjzP7U--BUIRFLF-197" value="&lt;span style=&quot;font-size: 16px;&quot;&gt;Обновить данные в табло&lt;/span&gt;" style="rounded=1;whiteSpace=wrap;html=1;" vertex="1" parent="1">
          <mxGeometry x="400" y="3014.5" width="120" height="60" as="geometry" />
        </mxCell>
        <mxCell id="iKDYDLjzP7U--BUIRFLF-198" value="" style="rhombus;whiteSpace=wrap;html=1;" vertex="1" parent="1">
          <mxGeometry x="365" y="2884.5" width="80" height="80" as="geometry" />
        </mxCell>
        <mxCell id="iKDYDLjzP7U--BUIRFLF-199" style="edgeStyle=orthogonalEdgeStyle;rounded=0;orthogonalLoop=1;jettySize=auto;html=1;exitX=0.5;exitY=1;exitDx=0;exitDy=0;entryX=0.445;entryY=0.017;entryDx=0;entryDy=0;entryPerimeter=0;endArrow=open;endFill=0;" edge="1" parent="1" source="iKDYDLjzP7U--BUIRFLF-187" target="iKDYDLjzP7U--BUIRFLF-195">
          <mxGeometry relative="1" as="geometry" />
        </mxCell>
        <mxCell id="iKDYDLjzP7U--BUIRFLF-200" style="edgeStyle=orthogonalEdgeStyle;rounded=0;orthogonalLoop=1;jettySize=auto;html=1;exitX=0;exitY=0;exitDx=70;exitDy=80;exitPerimeter=0;entryX=0.201;entryY=0.226;entryDx=0;entryDy=0;entryPerimeter=0;endArrow=open;endFill=0;" edge="1" parent="1" source="iKDYDLjzP7U--BUIRFLF-195" target="iKDYDLjzP7U--BUIRFLF-190">
          <mxGeometry relative="1" as="geometry" />
        </mxCell>
        <mxCell id="iKDYDLjzP7U--BUIRFLF-201" style="edgeStyle=orthogonalEdgeStyle;rounded=0;orthogonalLoop=1;jettySize=auto;html=1;exitX=0.5;exitY=1;exitDx=0;exitDy=0;entryX=0.789;entryY=0.115;entryDx=0;entryDy=0;entryPerimeter=0;endArrow=open;endFill=0;" edge="1" parent="1" source="iKDYDLjzP7U--BUIRFLF-191" target="iKDYDLjzP7U--BUIRFLF-196">
          <mxGeometry relative="1" as="geometry" />
        </mxCell>
        <mxCell id="iKDYDLjzP7U--BUIRFLF-202" style="edgeStyle=orthogonalEdgeStyle;rounded=0;orthogonalLoop=1;jettySize=auto;html=1;exitX=0.5;exitY=1;exitDx=0;exitDy=0;entryX=0.211;entryY=0.289;entryDx=0;entryDy=0;entryPerimeter=0;endArrow=open;endFill=0;" edge="1" parent="1" source="iKDYDLjzP7U--BUIRFLF-192" target="iKDYDLjzP7U--BUIRFLF-196">
          <mxGeometry relative="1" as="geometry" />
        </mxCell>
        <mxCell id="iKDYDLjzP7U--BUIRFLF-203" style="edgeStyle=orthogonalEdgeStyle;rounded=0;orthogonalLoop=1;jettySize=auto;html=1;exitX=0.25;exitY=1;exitDx=0;exitDy=0;entryX=0.562;entryY=-0.006;entryDx=0;entryDy=0;entryPerimeter=0;endArrow=open;endFill=0;" edge="1" parent="1" source="iKDYDLjzP7U--BUIRFLF-196" target="iKDYDLjzP7U--BUIRFLF-194">
          <mxGeometry relative="1" as="geometry" />
        </mxCell>
        <mxCell id="iKDYDLjzP7U--BUIRFLF-204" style="edgeStyle=orthogonalEdgeStyle;rounded=0;orthogonalLoop=1;jettySize=auto;html=1;exitX=0;exitY=0.5;exitDx=0;exitDy=0;entryX=0.5;entryY=0;entryDx=0;entryDy=0;endArrow=open;endFill=0;" edge="1" parent="1" source="iKDYDLjzP7U--BUIRFLF-198" target="iKDYDLjzP7U--BUIRFLF-216">
          <mxGeometry relative="1" as="geometry">
            <mxPoint x="327.5" y="3022" as="targetPoint" />
          </mxGeometry>
        </mxCell>
        <mxCell id="iKDYDLjzP7U--BUIRFLF-205" style="edgeStyle=orthogonalEdgeStyle;rounded=0;orthogonalLoop=1;jettySize=auto;html=1;exitX=1;exitY=0.5;exitDx=0;exitDy=0;entryX=0.573;entryY=-0.006;entryDx=0;entryDy=0;entryPerimeter=0;endArrow=open;endFill=0;" edge="1" parent="1" source="iKDYDLjzP7U--BUIRFLF-198" target="iKDYDLjzP7U--BUIRFLF-197">
          <mxGeometry relative="1" as="geometry" />
        </mxCell>
        <mxCell id="iKDYDLjzP7U--BUIRFLF-206" style="edgeStyle=orthogonalEdgeStyle;rounded=0;orthogonalLoop=1;jettySize=auto;html=1;exitX=0.5;exitY=1;exitDx=0;exitDy=0;entryX=0.5;entryY=0;entryDx=0;entryDy=0;endArrow=open;endFill=0;" edge="1" parent="1" source="iKDYDLjzP7U--BUIRFLF-197" target="iKDYDLjzP7U--BUIRFLF-213">
          <mxGeometry relative="1" as="geometry">
            <mxPoint x="460" y="3040" as="targetPoint" />
          </mxGeometry>
        </mxCell>
        <mxCell id="iKDYDLjzP7U--BUIRFLF-207" value="[отчет пустой]" style="text;html=1;whiteSpace=wrap;strokeColor=none;fillColor=none;align=center;verticalAlign=middle;rounded=0;" vertex="1" parent="1">
          <mxGeometry x="305" y="2884.5" width="60" height="30" as="geometry" />
        </mxCell>
        <mxCell id="iKDYDLjzP7U--BUIRFLF-208" value="[отчет не пустой]" style="text;html=1;whiteSpace=wrap;strokeColor=none;fillColor=none;align=center;verticalAlign=middle;rounded=0;" vertex="1" parent="1">
          <mxGeometry x="437.5" y="2884.5" width="60" height="30" as="geometry" />
        </mxCell>
        <mxCell id="iKDYDLjzP7U--BUIRFLF-209" value="&lt;span style=&quot;text-align: left;&quot;&gt;&lt;font style=&quot;font-size: 30px;&quot;&gt;обновить основную информацию табло&lt;/font&gt;&lt;/span&gt;" style="text;html=1;whiteSpace=wrap;strokeColor=none;fillColor=none;align=center;verticalAlign=middle;rounded=0;" vertex="1" parent="1">
          <mxGeometry y="2098" width="780" height="50" as="geometry" />
        </mxCell>
        <mxCell id="iKDYDLjzP7U--BUIRFLF-210" style="edgeStyle=orthogonalEdgeStyle;rounded=0;orthogonalLoop=1;jettySize=auto;html=1;exitX=0.5;exitY=1;exitDx=0;exitDy=0;entryX=0.5;entryY=0;entryDx=0;entryDy=0;endArrow=open;endFill=0;" edge="1" parent="1" source="iKDYDLjzP7U--BUIRFLF-211" target="iKDYDLjzP7U--BUIRFLF-186">
          <mxGeometry relative="1" as="geometry" />
        </mxCell>
        <mxCell id="iKDYDLjzP7U--BUIRFLF-211" value="" style="ellipse;whiteSpace=wrap;html=1;aspect=fixed;fillColor=#252525;" vertex="1" parent="1">
          <mxGeometry x="110" y="2210" width="40" height="40" as="geometry" />
        </mxCell>
        <mxCell id="iKDYDLjzP7U--BUIRFLF-212" value="" style="group" vertex="1" connectable="0" parent="1">
          <mxGeometry x="440" y="3154.5" width="40" height="40" as="geometry" />
        </mxCell>
        <mxCell id="iKDYDLjzP7U--BUIRFLF-213" value="" style="ellipse;whiteSpace=wrap;html=1;aspect=fixed;fillColor=#FFFFFF;" vertex="1" parent="iKDYDLjzP7U--BUIRFLF-212">
          <mxGeometry width="40" height="40" as="geometry" />
        </mxCell>
        <mxCell id="iKDYDLjzP7U--BUIRFLF-214" value="" style="ellipse;whiteSpace=wrap;html=1;aspect=fixed;fillColor=#252525;" vertex="1" parent="iKDYDLjzP7U--BUIRFLF-212">
          <mxGeometry x="5" y="5" width="30" height="30" as="geometry" />
        </mxCell>
        <mxCell id="iKDYDLjzP7U--BUIRFLF-215" value="" style="group" vertex="1" connectable="0" parent="1">
          <mxGeometry x="305" y="3024.5" width="40" height="40" as="geometry" />
        </mxCell>
        <mxCell id="iKDYDLjzP7U--BUIRFLF-216" value="" style="ellipse;whiteSpace=wrap;html=1;aspect=fixed;fillColor=#FFFFFF;" vertex="1" parent="iKDYDLjzP7U--BUIRFLF-215">
          <mxGeometry width="40" height="40" as="geometry" />
        </mxCell>
        <mxCell id="iKDYDLjzP7U--BUIRFLF-217" value="" style="ellipse;whiteSpace=wrap;html=1;aspect=fixed;fillColor=#252525;" vertex="1" parent="iKDYDLjzP7U--BUIRFLF-215">
          <mxGeometry x="5" y="5" width="30" height="30" as="geometry" />
        </mxCell>
        <mxCell id="iKDYDLjzP7U--BUIRFLF-218" value="" style="rounded=0;whiteSpace=wrap;html=1;" vertex="1" parent="1">
          <mxGeometry x="830" y="2148.97" width="780" height="1401.03" as="geometry" />
        </mxCell>
        <mxCell id="iKDYDLjzP7U--BUIRFLF-219" value="&lt;font style=&quot;font-size: 20px;&quot;&gt;Пункт управления&lt;/font&gt;" style="text;html=1;whiteSpace=wrap;strokeColor=none;fillColor=none;align=center;verticalAlign=middle;rounded=0;" vertex="1" parent="1">
          <mxGeometry x="830" y="2148.97" width="260" height="30" as="geometry" />
        </mxCell>
        <mxCell id="iKDYDLjzP7U--BUIRFLF-220" value="" style="endArrow=none;dashed=1;html=1;rounded=0;entryX=0.333;entryY=-0.002;entryDx=0;entryDy=0;exitX=0.333;exitY=1.001;exitDx=0;exitDy=0;exitPerimeter=0;entryPerimeter=0;" edge="1" parent="1" source="iKDYDLjzP7U--BUIRFLF-218" target="iKDYDLjzP7U--BUIRFLF-218">
          <mxGeometry width="50" height="50" relative="1" as="geometry">
            <mxPoint x="1090" y="2648.9700000000007" as="sourcePoint" />
            <mxPoint x="1090" y="2215.97" as="targetPoint" />
          </mxGeometry>
        </mxCell>
        <mxCell id="iKDYDLjzP7U--BUIRFLF-221" value="" style="endArrow=none;dashed=1;html=1;rounded=0;entryX=0.68;entryY=0;entryDx=0;entryDy=0;exitX=0.68;exitY=1.001;exitDx=0;exitDy=0;exitPerimeter=0;entryPerimeter=0;" edge="1" parent="1" source="iKDYDLjzP7U--BUIRFLF-218" target="iKDYDLjzP7U--BUIRFLF-218">
          <mxGeometry width="50" height="50" relative="1" as="geometry">
            <mxPoint x="1360.58" y="2648.9700000000007" as="sourcePoint" />
            <mxPoint x="1360.5799999999995" y="2215.97" as="targetPoint" />
          </mxGeometry>
        </mxCell>
        <mxCell id="iKDYDLjzP7U--BUIRFLF-222" value="&lt;font style=&quot;font-size: 20px;&quot;&gt;Процессор&lt;/font&gt;" style="text;html=1;whiteSpace=wrap;strokeColor=none;fillColor=none;align=center;verticalAlign=middle;rounded=0;" vertex="1" parent="1">
          <mxGeometry x="1090" y="2148.97" width="270" height="30" as="geometry" />
        </mxCell>
        <mxCell id="iKDYDLjzP7U--BUIRFLF-223" value="&lt;font style=&quot;font-size: 20px;&quot;&gt;Память&lt;/font&gt;" style="text;html=1;whiteSpace=wrap;strokeColor=none;fillColor=none;align=center;verticalAlign=middle;rounded=0;" vertex="1" parent="1">
          <mxGeometry x="1360" y="2148.97" width="250" height="30" as="geometry" />
        </mxCell>
        <mxCell id="iKDYDLjzP7U--BUIRFLF-224" value="&lt;span style=&quot;text-align: left;&quot;&gt;&lt;font style=&quot;font-size: 30px;&quot;&gt;запросить данные о нарушениях времени&lt;/font&gt;&lt;/span&gt;" style="text;html=1;whiteSpace=wrap;strokeColor=none;fillColor=none;align=center;verticalAlign=middle;rounded=0;" vertex="1" parent="1">
          <mxGeometry x="830" y="2096.97" width="780" height="50" as="geometry" />
        </mxCell>
        <mxCell id="iKDYDLjzP7U--BUIRFLF-225" style="edgeStyle=orthogonalEdgeStyle;rounded=0;orthogonalLoop=1;jettySize=auto;html=1;exitX=0.5;exitY=1;exitDx=0;exitDy=0;entryX=0.5;entryY=0;entryDx=0;entryDy=0;endArrow=open;endFill=0;" edge="1" parent="1" source="iKDYDLjzP7U--BUIRFLF-226" target="iKDYDLjzP7U--BUIRFLF-228">
          <mxGeometry relative="1" as="geometry" />
        </mxCell>
        <mxCell id="iKDYDLjzP7U--BUIRFLF-226" value="" style="ellipse;whiteSpace=wrap;html=1;aspect=fixed;fillColor=#252525;" vertex="1" parent="1">
          <mxGeometry x="940" y="2210" width="40" height="40" as="geometry" />
        </mxCell>
        <mxCell id="iKDYDLjzP7U--BUIRFLF-227" style="edgeStyle=orthogonalEdgeStyle;rounded=0;orthogonalLoop=1;jettySize=auto;html=1;exitX=1;exitY=0.5;exitDx=0;exitDy=0;entryX=0;entryY=0.5;entryDx=0;entryDy=0;endArrow=open;endFill=0;" edge="1" parent="1" source="iKDYDLjzP7U--BUIRFLF-228" target="iKDYDLjzP7U--BUIRFLF-229">
          <mxGeometry relative="1" as="geometry" />
        </mxCell>
        <mxCell id="iKDYDLjzP7U--BUIRFLF-228" value="&lt;span style=&quot;font-size: 16px;&quot;&gt;Запрос к табло&lt;/span&gt;" style="rounded=1;whiteSpace=wrap;html=1;" vertex="1" parent="1">
          <mxGeometry x="900" y="2290" width="120" height="60" as="geometry" />
        </mxCell>
        <mxCell id="iKDYDLjzP7U--BUIRFLF-229" value="&lt;span style=&quot;font-size: 16px;&quot;&gt;Принять запрос ПУ&lt;/span&gt;" style="rounded=1;whiteSpace=wrap;html=1;" vertex="1" parent="1">
          <mxGeometry x="1160" y="2290" width="120" height="60" as="geometry" />
        </mxCell>
        <mxCell id="iKDYDLjzP7U--BUIRFLF-230" value="" style="rounded=0;whiteSpace=wrap;html=1;fillColor=#1ba1e2;strokeColor=none;fontColor=#ffffff;" vertex="1" parent="1">
          <mxGeometry x="1120" y="2500" width="450" height="10" as="geometry" />
        </mxCell>
        <mxCell id="iKDYDLjzP7U--BUIRFLF-231" value="&lt;span style=&quot;font-size: 16px;&quot;&gt;Подготовка данных о нарушениях&lt;/span&gt;" style="rounded=1;whiteSpace=wrap;html=1;" vertex="1" parent="1">
          <mxGeometry x="1415" y="2578.5" width="120" height="60" as="geometry" />
        </mxCell>
        <mxCell id="iKDYDLjzP7U--BUIRFLF-232" value="&lt;span style=&quot;font-size: 16px;&quot;&gt;Ожидание &lt;br&gt;(10 секунд)&lt;/span&gt;" style="rounded=1;whiteSpace=wrap;html=1;" vertex="1" parent="1">
          <mxGeometry x="1155" y="2578.5" width="120" height="60" as="geometry" />
        </mxCell>
        <mxCell id="iKDYDLjzP7U--BUIRFLF-233" value="&lt;span style=&quot;font-size: 16px; text-wrap-mode: wrap;&quot;&gt;Отправка &lt;br&gt;запроса к памяти&lt;/span&gt;" style="html=1;shadow=0;dashed=0;align=center;verticalAlign=middle;shape=mxgraph.arrows2.arrow;dy=0;dx=30;notch=30;" vertex="1" parent="1">
          <mxGeometry x="1140" y="2380" width="170" height="80" as="geometry" />
        </mxCell>
        <mxCell id="iKDYDLjzP7U--BUIRFLF-234" value="" style="rounded=0;whiteSpace=wrap;html=1;fillColor=#1ba1e2;strokeColor=none;fontColor=#ffffff;" vertex="1" parent="1">
          <mxGeometry x="1120" y="2705" width="450" height="10" as="geometry" />
        </mxCell>
        <mxCell id="iKDYDLjzP7U--BUIRFLF-235" style="edgeStyle=orthogonalEdgeStyle;rounded=0;orthogonalLoop=1;jettySize=auto;html=1;exitX=0;exitY=0;exitDx=70;exitDy=80;exitPerimeter=0;entryX=0.201;entryY=0.226;entryDx=0;entryDy=0;entryPerimeter=0;endArrow=open;endFill=0;" edge="1" parent="1" source="iKDYDLjzP7U--BUIRFLF-233" target="iKDYDLjzP7U--BUIRFLF-230">
          <mxGeometry relative="1" as="geometry" />
        </mxCell>
        <mxCell id="iKDYDLjzP7U--BUIRFLF-236" style="edgeStyle=orthogonalEdgeStyle;rounded=0;orthogonalLoop=1;jettySize=auto;html=1;exitX=0.25;exitY=1;exitDx=0;exitDy=0;entryX=0.651;entryY=0.023;entryDx=0;entryDy=0;entryPerimeter=0;endArrow=open;endFill=0;" edge="1" parent="1" source="iKDYDLjzP7U--BUIRFLF-230" target="iKDYDLjzP7U--BUIRFLF-232">
          <mxGeometry relative="1" as="geometry" />
        </mxCell>
        <mxCell id="iKDYDLjzP7U--BUIRFLF-237" style="edgeStyle=orthogonalEdgeStyle;rounded=0;orthogonalLoop=1;jettySize=auto;html=1;exitX=0.5;exitY=1;exitDx=0;exitDy=0;entryX=0.789;entryY=0.115;entryDx=0;entryDy=0;entryPerimeter=0;endArrow=open;endFill=0;" edge="1" parent="1" source="iKDYDLjzP7U--BUIRFLF-231" target="iKDYDLjzP7U--BUIRFLF-234">
          <mxGeometry relative="1" as="geometry" />
        </mxCell>
        <mxCell id="iKDYDLjzP7U--BUIRFLF-238" style="edgeStyle=orthogonalEdgeStyle;rounded=0;orthogonalLoop=1;jettySize=auto;html=1;exitX=0.5;exitY=1;exitDx=0;exitDy=0;entryX=0.211;entryY=0.289;entryDx=0;entryDy=0;entryPerimeter=0;endArrow=open;endFill=0;" edge="1" parent="1" source="iKDYDLjzP7U--BUIRFLF-232" target="iKDYDLjzP7U--BUIRFLF-234">
          <mxGeometry relative="1" as="geometry" />
        </mxCell>
        <mxCell id="iKDYDLjzP7U--BUIRFLF-239" style="edgeStyle=orthogonalEdgeStyle;rounded=0;orthogonalLoop=1;jettySize=auto;html=1;exitX=0.75;exitY=1;exitDx=0;exitDy=0;entryX=0.353;entryY=0.01;entryDx=0;entryDy=0;entryPerimeter=0;endArrow=open;endFill=0;" edge="1" parent="1" source="iKDYDLjzP7U--BUIRFLF-230" target="iKDYDLjzP7U--BUIRFLF-231">
          <mxGeometry relative="1" as="geometry" />
        </mxCell>
        <mxCell id="iKDYDLjzP7U--BUIRFLF-240" value="" style="rhombus;whiteSpace=wrap;html=1;" vertex="1" parent="1">
          <mxGeometry x="598" y="2531" width="80" height="80" as="geometry" />
        </mxCell>
        <mxCell id="iKDYDLjzP7U--BUIRFLF-241" style="edgeStyle=orthogonalEdgeStyle;rounded=0;orthogonalLoop=1;jettySize=auto;html=1;exitX=0.5;exitY=1;exitDx=0;exitDy=0;endArrow=open;endFill=0;entryX=0.36;entryY=0.004;entryDx=0;entryDy=0;entryPerimeter=0;" edge="1" parent="1" source="iKDYDLjzP7U--BUIRFLF-240" target="iKDYDLjzP7U--BUIRFLF-191">
          <mxGeometry relative="1" as="geometry">
            <mxPoint x="638" y="2630" as="targetPoint" />
          </mxGeometry>
        </mxCell>
        <mxCell id="iKDYDLjzP7U--BUIRFLF-242" value="[доступен]" style="text;html=1;whiteSpace=wrap;strokeColor=none;fillColor=none;align=center;verticalAlign=middle;rounded=0;" vertex="1" parent="1">
          <mxGeometry x="650" y="2601" width="60" height="30" as="geometry" />
        </mxCell>
        <mxCell id="iKDYDLjzP7U--BUIRFLF-243" style="edgeStyle=orthogonalEdgeStyle;rounded=0;orthogonalLoop=1;jettySize=auto;html=1;exitX=0;exitY=0.5;exitDx=0;exitDy=0;entryX=1;entryY=0.5;entryDx=0;entryDy=0;endArrow=open;endFill=0;" edge="1" parent="1" source="iKDYDLjzP7U--BUIRFLF-240" target="iKDYDLjzP7U--BUIRFLF-385">
          <mxGeometry relative="1" as="geometry">
            <Array as="points">
              <mxPoint x="510" y="2570" />
              <mxPoint x="510" y="2571" />
            </Array>
          </mxGeometry>
        </mxCell>
        <mxCell id="iKDYDLjzP7U--BUIRFLF-244" value="[недоступен]" style="text;html=1;whiteSpace=wrap;strokeColor=none;fillColor=none;align=center;verticalAlign=middle;rounded=0;" vertex="1" parent="1">
          <mxGeometry x="538" y="2541" width="60" height="30" as="geometry" />
        </mxCell>
        <mxCell id="iKDYDLjzP7U--BUIRFLF-245" style="edgeStyle=orthogonalEdgeStyle;rounded=0;orthogonalLoop=1;jettySize=auto;html=1;exitX=0.5;exitY=1;exitDx=0;exitDy=0;exitPerimeter=0;entryX=0.5;entryY=0;entryDx=0;entryDy=0;endArrow=open;endFill=0;" edge="1" parent="1" source="iKDYDLjzP7U--BUIRFLF-246" target="iKDYDLjzP7U--BUIRFLF-252">
          <mxGeometry relative="1" as="geometry" />
        </mxCell>
        <mxCell id="iKDYDLjzP7U--BUIRFLF-246" value="&lt;span style=&quot;font-size: 16px;&quot;&gt;Получение результата запроса&lt;/span&gt;" style="strokeWidth=2;html=1;shape=mxgraph.flowchart.stored_data;whiteSpace=wrap;container=0;fixDash=0;noLabel=0;portConstraintRotation=0;" vertex="1" parent="1">
          <mxGeometry x="1167" y="2776" width="130" height="60" as="geometry" />
        </mxCell>
        <mxCell id="iKDYDLjzP7U--BUIRFLF-247" style="edgeStyle=orthogonalEdgeStyle;rounded=0;orthogonalLoop=1;jettySize=auto;html=1;exitX=0.25;exitY=1;exitDx=0;exitDy=0;entryX=0.5;entryY=0;entryDx=0;entryDy=0;entryPerimeter=0;endArrow=open;endFill=0;" edge="1" parent="1" source="iKDYDLjzP7U--BUIRFLF-234" target="iKDYDLjzP7U--BUIRFLF-246">
          <mxGeometry relative="1" as="geometry" />
        </mxCell>
        <mxCell id="iKDYDLjzP7U--BUIRFLF-248" style="edgeStyle=orthogonalEdgeStyle;rounded=0;orthogonalLoop=1;jettySize=auto;html=1;exitX=0.75;exitY=1;exitDx=0;exitDy=0;entryX=1;entryY=0.5;entryDx=0;entryDy=0;endArrow=open;endFill=0;" edge="1" parent="1" source="iKDYDLjzP7U--BUIRFLF-249" target="iKDYDLjzP7U--BUIRFLF-258">
          <mxGeometry relative="1" as="geometry" />
        </mxCell>
        <mxCell id="iKDYDLjzP7U--BUIRFLF-249" value="&lt;span style=&quot;font-size: 16px;&quot;&gt;Формирование отчета&lt;/span&gt;" style="rounded=1;whiteSpace=wrap;html=1;" vertex="1" parent="1">
          <mxGeometry x="1230" y="3014.5" width="120" height="60" as="geometry" />
        </mxCell>
        <mxCell id="iKDYDLjzP7U--BUIRFLF-250" style="edgeStyle=orthogonalEdgeStyle;rounded=0;orthogonalLoop=1;jettySize=auto;html=1;exitX=1;exitY=0.5;exitDx=0;exitDy=0;entryX=0.75;entryY=0;entryDx=0;entryDy=0;endArrow=open;endFill=0;" edge="1" parent="1" source="iKDYDLjzP7U--BUIRFLF-252" target="iKDYDLjzP7U--BUIRFLF-249">
          <mxGeometry relative="1" as="geometry" />
        </mxCell>
        <mxCell id="iKDYDLjzP7U--BUIRFLF-251" style="edgeStyle=orthogonalEdgeStyle;rounded=0;orthogonalLoop=1;jettySize=auto;html=1;exitX=0;exitY=0.5;exitDx=0;exitDy=0;entryX=0.25;entryY=0;entryDx=0;entryDy=0;endArrow=open;endFill=0;" edge="1" parent="1" source="iKDYDLjzP7U--BUIRFLF-252" target="iKDYDLjzP7U--BUIRFLF-254">
          <mxGeometry relative="1" as="geometry" />
        </mxCell>
        <mxCell id="iKDYDLjzP7U--BUIRFLF-252" value="" style="rhombus;whiteSpace=wrap;html=1;" vertex="1" parent="1">
          <mxGeometry x="1192" y="2884.5" width="80" height="80" as="geometry" />
        </mxCell>
        <mxCell id="iKDYDLjzP7U--BUIRFLF-253" style="edgeStyle=orthogonalEdgeStyle;rounded=0;orthogonalLoop=1;jettySize=auto;html=1;exitX=0.25;exitY=1;exitDx=0;exitDy=0;entryX=0;entryY=0.5;entryDx=0;entryDy=0;endArrow=open;endFill=0;" edge="1" parent="1" source="iKDYDLjzP7U--BUIRFLF-254" target="iKDYDLjzP7U--BUIRFLF-258">
          <mxGeometry relative="1" as="geometry" />
        </mxCell>
        <mxCell id="iKDYDLjzP7U--BUIRFLF-254" value="&lt;span style=&quot;font-size: 16px;&quot;&gt;Формирование пустого отчета&lt;/span&gt;" style="rounded=1;whiteSpace=wrap;html=1;" vertex="1" parent="1">
          <mxGeometry x="1100" y="3014.5" width="120" height="60" as="geometry" />
        </mxCell>
        <mxCell id="iKDYDLjzP7U--BUIRFLF-255" value="[нет данных]" style="text;html=1;whiteSpace=wrap;strokeColor=none;fillColor=none;align=center;verticalAlign=middle;rounded=0;" vertex="1" parent="1">
          <mxGeometry x="1120" y="2884.5" width="60" height="30" as="geometry" />
        </mxCell>
        <mxCell id="iKDYDLjzP7U--BUIRFLF-256" value="[есть данные]" style="text;html=1;whiteSpace=wrap;strokeColor=none;fillColor=none;align=center;verticalAlign=middle;rounded=0;" vertex="1" parent="1">
          <mxGeometry x="1272" y="2884.5" width="60" height="30" as="geometry" />
        </mxCell>
        <mxCell id="iKDYDLjzP7U--BUIRFLF-257" style="edgeStyle=orthogonalEdgeStyle;rounded=0;orthogonalLoop=1;jettySize=auto;html=1;exitX=0.5;exitY=1;exitDx=0;exitDy=0;entryX=0.5;entryY=0;entryDx=0;entryDy=0;endArrow=open;endFill=0;" edge="1" parent="1" source="iKDYDLjzP7U--BUIRFLF-258" target="iKDYDLjzP7U--BUIRFLF-260">
          <mxGeometry relative="1" as="geometry" />
        </mxCell>
        <mxCell id="iKDYDLjzP7U--BUIRFLF-258" value="" style="rhombus;whiteSpace=wrap;html=1;" vertex="1" parent="1">
          <mxGeometry x="1192" y="3110" width="80" height="80" as="geometry" />
        </mxCell>
        <mxCell id="iKDYDLjzP7U--BUIRFLF-259" style="edgeStyle=orthogonalEdgeStyle;rounded=0;orthogonalLoop=1;jettySize=auto;html=1;exitX=0;exitY=0.5;exitDx=0;exitDy=0;entryX=1;entryY=0.5;entryDx=0;entryDy=0;" edge="1" parent="1" source="iKDYDLjzP7U--BUIRFLF-260" target="iKDYDLjzP7U--BUIRFLF-263">
          <mxGeometry relative="1" as="geometry" />
        </mxCell>
        <mxCell id="iKDYDLjzP7U--BUIRFLF-260" value="&lt;span style=&quot;font-size: 16px;&quot;&gt;Отправка отчета ПУ&lt;/span&gt;" style="rounded=1;whiteSpace=wrap;html=1;" vertex="1" parent="1">
          <mxGeometry x="1172" y="3250" width="120" height="60" as="geometry" />
        </mxCell>
        <mxCell id="iKDYDLjzP7U--BUIRFLF-261" style="edgeStyle=orthogonalEdgeStyle;rounded=0;orthogonalLoop=1;jettySize=auto;html=1;exitX=0.5;exitY=1;exitDx=0;exitDy=0;entryX=0.472;entryY=0.004;entryDx=0;entryDy=0;entryPerimeter=0;endArrow=open;endFill=0;" edge="1" parent="1" source="iKDYDLjzP7U--BUIRFLF-229" target="iKDYDLjzP7U--BUIRFLF-233">
          <mxGeometry relative="1" as="geometry" />
        </mxCell>
        <mxCell id="iKDYDLjzP7U--BUIRFLF-262" style="edgeStyle=orthogonalEdgeStyle;rounded=0;orthogonalLoop=1;jettySize=auto;html=1;exitX=0.5;exitY=1;exitDx=0;exitDy=0;entryX=0.5;entryY=0;entryDx=0;entryDy=0;endArrow=open;endFill=0;" edge="1" parent="1" source="iKDYDLjzP7U--BUIRFLF-263" target="iKDYDLjzP7U--BUIRFLF-265">
          <mxGeometry relative="1" as="geometry" />
        </mxCell>
        <mxCell id="iKDYDLjzP7U--BUIRFLF-263" value="&lt;span style=&quot;font-size: 16px;&quot;&gt;Принять отчет&lt;/span&gt;" style="rounded=1;whiteSpace=wrap;html=1;" vertex="1" parent="1">
          <mxGeometry x="900" y="3250" width="120" height="60" as="geometry" />
        </mxCell>
        <mxCell id="iKDYDLjzP7U--BUIRFLF-264" style="edgeStyle=orthogonalEdgeStyle;rounded=0;orthogonalLoop=1;jettySize=auto;html=1;exitX=0.5;exitY=1;exitDx=0;exitDy=0;entryX=0.5;entryY=0;entryDx=0;entryDy=0;endArrow=open;endFill=0;" edge="1" parent="1" source="iKDYDLjzP7U--BUIRFLF-265" target="iKDYDLjzP7U--BUIRFLF-267">
          <mxGeometry relative="1" as="geometry" />
        </mxCell>
        <mxCell id="iKDYDLjzP7U--BUIRFLF-265" value="&lt;span style=&quot;font-size: 16px;&quot;&gt;Обновить данные в локальной БД&lt;/span&gt;" style="rounded=1;whiteSpace=wrap;html=1;" vertex="1" parent="1">
          <mxGeometry x="900" y="3350" width="120" height="60" as="geometry" />
        </mxCell>
        <mxCell id="iKDYDLjzP7U--BUIRFLF-266" value="" style="group" vertex="1" connectable="0" parent="1">
          <mxGeometry x="940" y="3460" width="40" height="40" as="geometry" />
        </mxCell>
        <mxCell id="iKDYDLjzP7U--BUIRFLF-267" value="" style="ellipse;whiteSpace=wrap;html=1;aspect=fixed;fillColor=#FFFFFF;" vertex="1" parent="iKDYDLjzP7U--BUIRFLF-266">
          <mxGeometry width="40" height="40" as="geometry" />
        </mxCell>
        <mxCell id="iKDYDLjzP7U--BUIRFLF-268" value="" style="ellipse;whiteSpace=wrap;html=1;aspect=fixed;fillColor=#252525;" vertex="1" parent="iKDYDLjzP7U--BUIRFLF-266">
          <mxGeometry x="5" y="5" width="30" height="30" as="geometry" />
        </mxCell>
        <mxCell id="iKDYDLjzP7U--BUIRFLF-269" value="" style="rounded=0;whiteSpace=wrap;html=1;" vertex="1" parent="1">
          <mxGeometry x="1660" y="2148.87" width="780" height="1401.13" as="geometry" />
        </mxCell>
        <mxCell id="iKDYDLjzP7U--BUIRFLF-270" value="&lt;font style=&quot;font-size: 20px;&quot;&gt;Датчик&lt;/font&gt;" style="text;html=1;whiteSpace=wrap;strokeColor=none;fillColor=none;align=center;verticalAlign=middle;rounded=0;" vertex="1" parent="1">
          <mxGeometry x="1660" y="2148.87" width="260" height="30" as="geometry" />
        </mxCell>
        <mxCell id="iKDYDLjzP7U--BUIRFLF-271" value="" style="endArrow=none;dashed=1;html=1;rounded=0;entryX=0.333;entryY=-0.002;entryDx=0;entryDy=0;exitX=0.333;exitY=1.001;exitDx=0;exitDy=0;exitPerimeter=0;entryPerimeter=0;" edge="1" parent="1" source="iKDYDLjzP7U--BUIRFLF-269" target="iKDYDLjzP7U--BUIRFLF-269">
          <mxGeometry width="50" height="50" relative="1" as="geometry">
            <mxPoint x="1920" y="2648.870000000001" as="sourcePoint" />
            <mxPoint x="1920" y="2215.87" as="targetPoint" />
          </mxGeometry>
        </mxCell>
        <mxCell id="iKDYDLjzP7U--BUIRFLF-272" value="" style="endArrow=none;dashed=1;html=1;rounded=0;entryX=0.68;entryY=0;entryDx=0;entryDy=0;exitX=0.68;exitY=1.001;exitDx=0;exitDy=0;exitPerimeter=0;entryPerimeter=0;" edge="1" parent="1" source="iKDYDLjzP7U--BUIRFLF-269" target="iKDYDLjzP7U--BUIRFLF-269">
          <mxGeometry width="50" height="50" relative="1" as="geometry">
            <mxPoint x="2190.58" y="2648.870000000001" as="sourcePoint" />
            <mxPoint x="2190.5799999999995" y="2215.87" as="targetPoint" />
          </mxGeometry>
        </mxCell>
        <mxCell id="iKDYDLjzP7U--BUIRFLF-273" value="&lt;font style=&quot;font-size: 20px;&quot;&gt;Процессор&lt;/font&gt;" style="text;html=1;whiteSpace=wrap;strokeColor=none;fillColor=none;align=center;verticalAlign=middle;rounded=0;" vertex="1" parent="1">
          <mxGeometry x="1920" y="2148.87" width="270" height="30" as="geometry" />
        </mxCell>
        <mxCell id="iKDYDLjzP7U--BUIRFLF-274" value="&lt;font style=&quot;font-size: 20px;&quot;&gt;Память&lt;/font&gt;" style="text;html=1;whiteSpace=wrap;strokeColor=none;fillColor=none;align=center;verticalAlign=middle;rounded=0;" vertex="1" parent="1">
          <mxGeometry x="2190" y="2148.87" width="250" height="30" as="geometry" />
        </mxCell>
        <mxCell id="iKDYDLjzP7U--BUIRFLF-275" value="&lt;span style=&quot;text-align: left;&quot;&gt;&lt;font style=&quot;font-size: 30px;&quot;&gt;обновить и отобразить информацию о конечной станции прибывающего поезда&lt;/font&gt;&lt;/span&gt;" style="text;html=1;whiteSpace=wrap;strokeColor=none;fillColor=none;align=center;verticalAlign=middle;rounded=0;" vertex="1" parent="1">
          <mxGeometry x="1660" y="2080" width="780" height="50" as="geometry" />
        </mxCell>
        <mxCell id="iKDYDLjzP7U--BUIRFLF-276" value="" style="rounded=0;whiteSpace=wrap;html=1;" vertex="1" parent="1">
          <mxGeometry x="2490" y="2147.74" width="780" height="1222.26" as="geometry" />
        </mxCell>
        <mxCell id="iKDYDLjzP7U--BUIRFLF-277" value="&lt;font style=&quot;font-size: 20px;&quot;&gt;Датчик&lt;/font&gt;" style="text;html=1;whiteSpace=wrap;strokeColor=none;fillColor=none;align=center;verticalAlign=middle;rounded=0;" vertex="1" parent="1">
          <mxGeometry x="2490" y="2147.74" width="260" height="30" as="geometry" />
        </mxCell>
        <mxCell id="iKDYDLjzP7U--BUIRFLF-278" value="" style="endArrow=none;dashed=1;html=1;rounded=0;entryX=0.333;entryY=-0.002;entryDx=0;entryDy=0;exitX=0.333;exitY=1.001;exitDx=0;exitDy=0;exitPerimeter=0;entryPerimeter=0;" edge="1" parent="1" source="iKDYDLjzP7U--BUIRFLF-276" target="iKDYDLjzP7U--BUIRFLF-276">
          <mxGeometry width="50" height="50" relative="1" as="geometry">
            <mxPoint x="2750" y="2647.7400000000007" as="sourcePoint" />
            <mxPoint x="2750" y="2214.74" as="targetPoint" />
          </mxGeometry>
        </mxCell>
        <mxCell id="iKDYDLjzP7U--BUIRFLF-279" value="" style="endArrow=none;dashed=1;html=1;rounded=0;entryX=0.68;entryY=0;entryDx=0;entryDy=0;exitX=0.68;exitY=1.001;exitDx=0;exitDy=0;exitPerimeter=0;entryPerimeter=0;" edge="1" parent="1" source="iKDYDLjzP7U--BUIRFLF-276" target="iKDYDLjzP7U--BUIRFLF-276">
          <mxGeometry width="50" height="50" relative="1" as="geometry">
            <mxPoint x="3020.58" y="2647.7400000000007" as="sourcePoint" />
            <mxPoint x="3020.5799999999995" y="2214.74" as="targetPoint" />
          </mxGeometry>
        </mxCell>
        <mxCell id="iKDYDLjzP7U--BUIRFLF-280" value="&lt;font style=&quot;font-size: 20px;&quot;&gt;Процессор&lt;/font&gt;" style="text;html=1;whiteSpace=wrap;strokeColor=none;fillColor=none;align=center;verticalAlign=middle;rounded=0;" vertex="1" parent="1">
          <mxGeometry x="2750" y="2147.74" width="270" height="30" as="geometry" />
        </mxCell>
        <mxCell id="iKDYDLjzP7U--BUIRFLF-281" value="&lt;font style=&quot;font-size: 20px;&quot;&gt;Память&lt;/font&gt;" style="text;html=1;whiteSpace=wrap;strokeColor=none;fillColor=none;align=center;verticalAlign=middle;rounded=0;" vertex="1" parent="1">
          <mxGeometry x="3020" y="2147.74" width="250" height="30" as="geometry" />
        </mxCell>
        <mxCell id="iKDYDLjzP7U--BUIRFLF-282" value="&lt;span style=&quot;text-align: left;&quot;&gt;&lt;font style=&quot;font-size: 30px;&quot;&gt;уведомить табло об отбытии поезда&lt;/font&gt;&lt;/span&gt;" style="text;html=1;whiteSpace=wrap;strokeColor=none;fillColor=none;align=center;verticalAlign=middle;rounded=0;" vertex="1" parent="1">
          <mxGeometry x="2490" y="2095.74" width="780" height="50" as="geometry" />
        </mxCell>
        <mxCell id="iKDYDLjzP7U--BUIRFLF-283" style="edgeStyle=orthogonalEdgeStyle;rounded=0;orthogonalLoop=1;jettySize=auto;html=1;exitX=0.5;exitY=1;exitDx=0;exitDy=0;entryX=0.5;entryY=0;entryDx=0;entryDy=0;endArrow=open;endFill=0;" edge="1" parent="1" source="iKDYDLjzP7U--BUIRFLF-284" target="iKDYDLjzP7U--BUIRFLF-286">
          <mxGeometry relative="1" as="geometry" />
        </mxCell>
        <mxCell id="iKDYDLjzP7U--BUIRFLF-284" value="" style="ellipse;whiteSpace=wrap;html=1;aspect=fixed;fillColor=#252525;" vertex="1" parent="1">
          <mxGeometry x="1770" y="2200" width="40" height="40" as="geometry" />
        </mxCell>
        <mxCell id="iKDYDLjzP7U--BUIRFLF-285" style="edgeStyle=orthogonalEdgeStyle;rounded=0;orthogonalLoop=1;jettySize=auto;html=1;exitX=1;exitY=0.5;exitDx=0;exitDy=0;entryX=0;entryY=0.5;entryDx=0;entryDy=0;endArrow=open;endFill=0;" edge="1" parent="1" source="iKDYDLjzP7U--BUIRFLF-286" target="iKDYDLjzP7U--BUIRFLF-287">
          <mxGeometry relative="1" as="geometry" />
        </mxCell>
        <mxCell id="iKDYDLjzP7U--BUIRFLF-286" value="&lt;span style=&quot;font-size: 16px;&quot;&gt;Отправка оповещения о прибытии&lt;/span&gt;" style="rounded=1;whiteSpace=wrap;html=1;" vertex="1" parent="1">
          <mxGeometry x="1730" y="2290" width="120" height="60" as="geometry" />
        </mxCell>
        <mxCell id="iKDYDLjzP7U--BUIRFLF-287" value="&lt;span style=&quot;font-size: 16px;&quot;&gt;Получение оповещения&lt;/span&gt;" style="rounded=1;whiteSpace=wrap;html=1;" vertex="1" parent="1">
          <mxGeometry x="1990" y="2290" width="120" height="60" as="geometry" />
        </mxCell>
        <mxCell id="iKDYDLjzP7U--BUIRFLF-288" value="&lt;span style=&quot;font-size: 16px; text-wrap-mode: wrap;&quot;&gt;Отправка &lt;br&gt;запроса к памяти&lt;/span&gt;" style="html=1;shadow=0;dashed=0;align=center;verticalAlign=middle;shape=mxgraph.arrows2.arrow;dy=0;dx=30;notch=30;" vertex="1" parent="1">
          <mxGeometry x="1970" y="2380" width="170" height="80" as="geometry" />
        </mxCell>
        <mxCell id="iKDYDLjzP7U--BUIRFLF-289" style="edgeStyle=orthogonalEdgeStyle;rounded=0;orthogonalLoop=1;jettySize=auto;html=1;exitX=0.889;exitY=1.086;exitDx=0;exitDy=0;entryX=0.5;entryY=0;entryDx=0;entryDy=0;endArrow=open;endFill=0;exitPerimeter=0;" edge="1" parent="1" source="iKDYDLjzP7U--BUIRFLF-291" target="iKDYDLjzP7U--BUIRFLF-302">
          <mxGeometry relative="1" as="geometry" />
        </mxCell>
        <mxCell id="iKDYDLjzP7U--BUIRFLF-290" style="edgeStyle=orthogonalEdgeStyle;rounded=0;orthogonalLoop=1;jettySize=auto;html=1;exitX=0.25;exitY=1;exitDx=0;exitDy=0;entryX=0.5;entryY=0;entryDx=0;entryDy=0;endArrow=open;endFill=0;" edge="1" parent="1" source="iKDYDLjzP7U--BUIRFLF-291" target="iKDYDLjzP7U--BUIRFLF-387">
          <mxGeometry relative="1" as="geometry">
            <Array as="points">
              <mxPoint x="2045" y="2510" />
            </Array>
          </mxGeometry>
        </mxCell>
        <mxCell id="iKDYDLjzP7U--BUIRFLF-291" value="" style="rounded=0;whiteSpace=wrap;html=1;fillColor=#1ba1e2;strokeColor=none;fontColor=#ffffff;" vertex="1" parent="1">
          <mxGeometry x="1950" y="2500" width="450" height="10" as="geometry" />
        </mxCell>
        <mxCell id="iKDYDLjzP7U--BUIRFLF-292" style="edgeStyle=orthogonalEdgeStyle;rounded=0;orthogonalLoop=1;jettySize=auto;html=1;exitX=0.5;exitY=1;exitDx=0;exitDy=0;entryX=0.75;entryY=0;entryDx=0;entryDy=0;endArrow=open;endFill=0;" edge="1" parent="1" source="iKDYDLjzP7U--BUIRFLF-293" target="iKDYDLjzP7U--BUIRFLF-295">
          <mxGeometry relative="1" as="geometry" />
        </mxCell>
        <mxCell id="iKDYDLjzP7U--BUIRFLF-293" value="&lt;span style=&quot;font-size: 16px;&quot;&gt;Получение данных о поезде&lt;/span&gt;" style="rounded=1;whiteSpace=wrap;html=1;" vertex="1" parent="1">
          <mxGeometry x="2228" y="2884.5" width="120" height="60" as="geometry" />
        </mxCell>
        <mxCell id="iKDYDLjzP7U--BUIRFLF-294" value="&lt;span style=&quot;font-size: 16px;&quot;&gt;Ожидание &lt;br&gt;(10 секунд)&lt;/span&gt;" style="rounded=1;whiteSpace=wrap;html=1;" vertex="1" parent="1">
          <mxGeometry x="1985" y="2834.5" width="120" height="60" as="geometry" />
        </mxCell>
        <mxCell id="iKDYDLjzP7U--BUIRFLF-295" value="" style="rounded=0;whiteSpace=wrap;html=1;fillColor=#1ba1e2;strokeColor=none;fontColor=#ffffff;" vertex="1" parent="1">
          <mxGeometry x="1950" y="2979" width="450" height="10" as="geometry" />
        </mxCell>
        <mxCell id="iKDYDLjzP7U--BUIRFLF-296" style="edgeStyle=orthogonalEdgeStyle;rounded=0;orthogonalLoop=1;jettySize=auto;html=1;exitX=0;exitY=0.5;exitDx=0;exitDy=0;entryX=1;entryY=0.5;entryDx=0;entryDy=0;endArrow=open;endFill=0;" edge="1" parent="1" source="iKDYDLjzP7U--BUIRFLF-298" target="iKDYDLjzP7U--BUIRFLF-355">
          <mxGeometry relative="1" as="geometry" />
        </mxCell>
        <mxCell id="iKDYDLjzP7U--BUIRFLF-297" style="edgeStyle=orthogonalEdgeStyle;rounded=0;orthogonalLoop=1;jettySize=auto;html=1;exitX=0.5;exitY=1;exitDx=0;exitDy=0;entryX=0.5;entryY=0;entryDx=0;entryDy=0;endArrow=open;endFill=0;" edge="1" parent="1" source="iKDYDLjzP7U--BUIRFLF-298" target="iKDYDLjzP7U--BUIRFLF-357">
          <mxGeometry relative="1" as="geometry" />
        </mxCell>
        <mxCell id="iKDYDLjzP7U--BUIRFLF-298" value="" style="rhombus;whiteSpace=wrap;html=1;" vertex="1" parent="1">
          <mxGeometry x="2350" y="2700" width="40" height="40.5" as="geometry" />
        </mxCell>
        <mxCell id="iKDYDLjzP7U--BUIRFLF-299" style="edgeStyle=orthogonalEdgeStyle;rounded=0;orthogonalLoop=1;jettySize=auto;html=1;exitX=0.5;exitY=1;exitDx=0;exitDy=0;entryX=0.474;entryY=0.003;entryDx=0;entryDy=0;entryPerimeter=0;endArrow=open;endFill=0;" edge="1" parent="1" source="iKDYDLjzP7U--BUIRFLF-287" target="iKDYDLjzP7U--BUIRFLF-288">
          <mxGeometry relative="1" as="geometry" />
        </mxCell>
        <mxCell id="iKDYDLjzP7U--BUIRFLF-300" style="edgeStyle=orthogonalEdgeStyle;rounded=0;orthogonalLoop=1;jettySize=auto;html=1;exitX=0;exitY=0;exitDx=70;exitDy=80;exitPerimeter=0;entryX=0.201;entryY=0.234;entryDx=0;entryDy=0;entryPerimeter=0;endArrow=open;endFill=0;" edge="1" parent="1" source="iKDYDLjzP7U--BUIRFLF-288" target="iKDYDLjzP7U--BUIRFLF-291">
          <mxGeometry relative="1" as="geometry" />
        </mxCell>
        <mxCell id="iKDYDLjzP7U--BUIRFLF-301" style="edgeStyle=orthogonalEdgeStyle;rounded=0;orthogonalLoop=1;jettySize=auto;html=1;exitX=0.66;exitY=1.006;exitDx=0;exitDy=0;entryX=0.5;entryY=0;entryDx=0;entryDy=0;exitPerimeter=0;endArrow=open;endFill=0;" edge="1" parent="1" source="iKDYDLjzP7U--BUIRFLF-302" target="iKDYDLjzP7U--BUIRFLF-298">
          <mxGeometry relative="1" as="geometry">
            <Array as="points">
              <mxPoint x="2370" y="2611" />
            </Array>
          </mxGeometry>
        </mxCell>
        <mxCell id="iKDYDLjzP7U--BUIRFLF-302" value="&lt;span style=&quot;font-size: 16px;&quot;&gt;Проверка наличия поезда по расписанию&lt;/span&gt;" style="rounded=1;whiteSpace=wrap;html=1;" vertex="1" parent="1">
          <mxGeometry x="2290" y="2551" width="120" height="60" as="geometry" />
        </mxCell>
        <mxCell id="iKDYDLjzP7U--BUIRFLF-303" value="[есть данные]" style="text;html=1;whiteSpace=wrap;strokeColor=none;fillColor=none;align=center;verticalAlign=middle;rounded=0;" vertex="1" parent="1">
          <mxGeometry x="2370" y="2746" width="60" height="30" as="geometry" />
        </mxCell>
        <mxCell id="iKDYDLjzP7U--BUIRFLF-304" value="[нет данных]" style="text;html=1;whiteSpace=wrap;strokeColor=none;fillColor=none;align=center;verticalAlign=middle;rounded=0;" vertex="1" parent="1">
          <mxGeometry x="2300" y="2670" width="60" height="30" as="geometry" />
        </mxCell>
        <mxCell id="iKDYDLjzP7U--BUIRFLF-305" style="edgeStyle=orthogonalEdgeStyle;rounded=0;orthogonalLoop=1;jettySize=auto;html=1;exitX=0.5;exitY=1;exitDx=0;exitDy=0;entryX=0.211;entryY=0.216;entryDx=0;entryDy=0;entryPerimeter=0;endArrow=open;endFill=0;" edge="1" parent="1" source="iKDYDLjzP7U--BUIRFLF-294" target="iKDYDLjzP7U--BUIRFLF-295">
          <mxGeometry relative="1" as="geometry" />
        </mxCell>
        <mxCell id="iKDYDLjzP7U--BUIRFLF-306" style="edgeStyle=orthogonalEdgeStyle;rounded=0;orthogonalLoop=1;jettySize=auto;html=1;exitX=0.5;exitY=1;exitDx=0;exitDy=0;exitPerimeter=0;entryX=0.5;entryY=0;entryDx=0;entryDy=0;endArrow=open;endFill=0;" edge="1" parent="1" source="iKDYDLjzP7U--BUIRFLF-307" target="iKDYDLjzP7U--BUIRFLF-311">
          <mxGeometry relative="1" as="geometry" />
        </mxCell>
        <mxCell id="iKDYDLjzP7U--BUIRFLF-307" value="&lt;span style=&quot;font-size: 16px;&quot;&gt;Получение результата запроса&lt;/span&gt;" style="strokeWidth=2;html=1;shape=mxgraph.flowchart.stored_data;whiteSpace=wrap;container=0;fixDash=0;noLabel=0;portConstraintRotation=0;" vertex="1" parent="1">
          <mxGeometry x="1985" y="3034.5" width="130" height="60" as="geometry" />
        </mxCell>
        <mxCell id="iKDYDLjzP7U--BUIRFLF-308" style="edgeStyle=orthogonalEdgeStyle;rounded=0;orthogonalLoop=1;jettySize=auto;html=1;exitX=0.25;exitY=1;exitDx=0;exitDy=0;entryX=0.6;entryY=0.017;entryDx=0;entryDy=0;entryPerimeter=0;endArrow=open;endFill=0;" edge="1" parent="1" source="iKDYDLjzP7U--BUIRFLF-295" target="iKDYDLjzP7U--BUIRFLF-307">
          <mxGeometry relative="1" as="geometry" />
        </mxCell>
        <mxCell id="iKDYDLjzP7U--BUIRFLF-309" style="edgeStyle=orthogonalEdgeStyle;rounded=0;orthogonalLoop=1;jettySize=auto;html=1;exitX=0;exitY=0.5;exitDx=0;exitDy=0;entryX=0.5;entryY=0;entryDx=0;entryDy=0;endArrow=open;endFill=0;" edge="1" parent="1" source="iKDYDLjzP7U--BUIRFLF-311" target="iKDYDLjzP7U--BUIRFLF-315">
          <mxGeometry relative="1" as="geometry" />
        </mxCell>
        <mxCell id="iKDYDLjzP7U--BUIRFLF-310" style="edgeStyle=orthogonalEdgeStyle;rounded=0;orthogonalLoop=1;jettySize=auto;html=1;exitX=1;exitY=0.5;exitDx=0;exitDy=0;entryX=0.5;entryY=0;entryDx=0;entryDy=0;endArrow=open;endFill=0;" edge="1" parent="1" source="iKDYDLjzP7U--BUIRFLF-311" target="iKDYDLjzP7U--BUIRFLF-313">
          <mxGeometry relative="1" as="geometry" />
        </mxCell>
        <mxCell id="iKDYDLjzP7U--BUIRFLF-311" value="" style="rhombus;whiteSpace=wrap;html=1;" vertex="1" parent="1">
          <mxGeometry x="2010" y="3134.5" width="80" height="80" as="geometry" />
        </mxCell>
        <mxCell id="iKDYDLjzP7U--BUIRFLF-312" style="edgeStyle=orthogonalEdgeStyle;rounded=0;orthogonalLoop=1;jettySize=auto;html=1;exitX=0.5;exitY=1;exitDx=0;exitDy=0;entryX=1;entryY=0.5;entryDx=0;entryDy=0;endArrow=open;endFill=0;" edge="1" parent="1" source="iKDYDLjzP7U--BUIRFLF-313" target="iKDYDLjzP7U--BUIRFLF-319">
          <mxGeometry relative="1" as="geometry" />
        </mxCell>
        <mxCell id="iKDYDLjzP7U--BUIRFLF-313" value="&lt;span style=&quot;font-size: 16px;&quot;&gt;Вывод информации о поезде&lt;/span&gt;" style="rounded=1;whiteSpace=wrap;html=1;" vertex="1" parent="1">
          <mxGeometry x="2060" y="3254.5" width="120" height="60" as="geometry" />
        </mxCell>
        <mxCell id="iKDYDLjzP7U--BUIRFLF-314" style="edgeStyle=orthogonalEdgeStyle;rounded=0;orthogonalLoop=1;jettySize=auto;html=1;exitX=0.5;exitY=1;exitDx=0;exitDy=0;entryX=0;entryY=0.5;entryDx=0;entryDy=0;endArrow=open;endFill=0;" edge="1" parent="1" source="iKDYDLjzP7U--BUIRFLF-315" target="iKDYDLjzP7U--BUIRFLF-319">
          <mxGeometry relative="1" as="geometry" />
        </mxCell>
        <mxCell id="iKDYDLjzP7U--BUIRFLF-315" value="&lt;span style=&quot;font-size: 16px;&quot;&gt;Вывод: &quot;обратитесь к сотрудникам&quot;&lt;/span&gt;" style="rounded=1;whiteSpace=wrap;html=1;" vertex="1" parent="1">
          <mxGeometry x="1930" y="3254.5" width="120" height="60" as="geometry" />
        </mxCell>
        <mxCell id="iKDYDLjzP7U--BUIRFLF-316" value="[результат пустой]" style="text;html=1;whiteSpace=wrap;strokeColor=none;fillColor=none;align=center;verticalAlign=middle;rounded=0;" vertex="1" parent="1">
          <mxGeometry x="1950" y="3139" width="60" height="30" as="geometry" />
        </mxCell>
        <mxCell id="iKDYDLjzP7U--BUIRFLF-317" value="[результат с инф.]" style="text;html=1;whiteSpace=wrap;strokeColor=none;fillColor=none;align=center;verticalAlign=middle;rounded=0;" vertex="1" parent="1">
          <mxGeometry x="2090" y="3139" width="60" height="30" as="geometry" />
        </mxCell>
        <mxCell id="iKDYDLjzP7U--BUIRFLF-318" style="edgeStyle=orthogonalEdgeStyle;rounded=0;orthogonalLoop=1;jettySize=auto;html=1;exitX=0.5;exitY=1;exitDx=0;exitDy=0;entryX=0.5;entryY=0;entryDx=0;entryDy=0;endArrow=open;endFill=0;" edge="1" parent="1" source="iKDYDLjzP7U--BUIRFLF-319" target="iKDYDLjzP7U--BUIRFLF-321">
          <mxGeometry relative="1" as="geometry">
            <mxPoint x="2060" y="3360" as="targetPoint" />
          </mxGeometry>
        </mxCell>
        <mxCell id="iKDYDLjzP7U--BUIRFLF-319" value="" style="rhombus;whiteSpace=wrap;html=1;" vertex="1" parent="1">
          <mxGeometry x="2015" y="3334.5" width="80" height="80" as="geometry" />
        </mxCell>
        <mxCell id="iKDYDLjzP7U--BUIRFLF-320" value="" style="group" vertex="1" connectable="0" parent="1">
          <mxGeometry x="2035" y="3454.5" width="40" height="40" as="geometry" />
        </mxCell>
        <mxCell id="iKDYDLjzP7U--BUIRFLF-321" value="" style="ellipse;whiteSpace=wrap;html=1;aspect=fixed;fillColor=#FFFFFF;" vertex="1" parent="iKDYDLjzP7U--BUIRFLF-320">
          <mxGeometry width="40" height="40" as="geometry" />
        </mxCell>
        <mxCell id="iKDYDLjzP7U--BUIRFLF-322" value="" style="ellipse;whiteSpace=wrap;html=1;aspect=fixed;fillColor=#252525;" vertex="1" parent="iKDYDLjzP7U--BUIRFLF-320">
          <mxGeometry x="5" y="5" width="30" height="30" as="geometry" />
        </mxCell>
        <mxCell id="iKDYDLjzP7U--BUIRFLF-323" style="edgeStyle=orthogonalEdgeStyle;rounded=0;orthogonalLoop=1;jettySize=auto;html=1;exitX=0.5;exitY=1;exitDx=0;exitDy=0;entryX=0.5;entryY=0;entryDx=0;entryDy=0;" edge="1" parent="1" source="iKDYDLjzP7U--BUIRFLF-324" target="iKDYDLjzP7U--BUIRFLF-326">
          <mxGeometry relative="1" as="geometry" />
        </mxCell>
        <mxCell id="iKDYDLjzP7U--BUIRFLF-324" value="" style="ellipse;whiteSpace=wrap;html=1;aspect=fixed;fillColor=#252525;" vertex="1" parent="1">
          <mxGeometry x="2600" y="2200" width="40" height="40" as="geometry" />
        </mxCell>
        <mxCell id="iKDYDLjzP7U--BUIRFLF-325" style="edgeStyle=orthogonalEdgeStyle;rounded=0;orthogonalLoop=1;jettySize=auto;html=1;exitX=1;exitY=0.5;exitDx=0;exitDy=0;entryX=0;entryY=0.5;entryDx=0;entryDy=0;" edge="1" parent="1" source="iKDYDLjzP7U--BUIRFLF-326" target="iKDYDLjzP7U--BUIRFLF-328">
          <mxGeometry relative="1" as="geometry" />
        </mxCell>
        <mxCell id="iKDYDLjzP7U--BUIRFLF-326" value="&lt;span style=&quot;font-size: 16px;&quot;&gt;Отправка оповещения об отбытии&lt;/span&gt;" style="rounded=1;whiteSpace=wrap;html=1;" vertex="1" parent="1">
          <mxGeometry x="2560" y="2290" width="120" height="60" as="geometry" />
        </mxCell>
        <mxCell id="iKDYDLjzP7U--BUIRFLF-327" value="&lt;p class=&quot;MsoNormal&quot; style=&quot;text-indent:27.0pt&quot;&gt;&lt;b style=&quot;mso-bidi-font-weight:&amp;lt;br/&amp;gt;normal&quot;&gt;Вариант 17. Информационное табло на станции метро&lt;/b&gt;&lt;/p&gt;&lt;p class=&quot;MsoNormal&quot; style=&quot;text-indent:27.0pt&quot;&gt;Требуется разработать программное&lt;br&gt;обеспечение &lt;span style=&quot;mso-spacerun:yes&quot;&gt;&amp;nbsp;&lt;/span&gt;процессора информационного&lt;br&gt;табло.&lt;/p&gt;&lt;p class=&quot;MsoNormal&quot; style=&quot;text-indent:27.0pt&quot;&gt;Табло расположены на каждой&lt;br&gt;станции метро. Они работают под управлением единого пункта управления (ПУ)&lt;br&gt;информационной службы метро. Табло отображает текущее время (часы, минуты,&lt;br&gt;секунды) и время, прошедшее с момента отправления последнего поезда (минуты,&lt;br&gt;секунды). Момент прибытия и отправления поезда определяется при помощи&lt;br&gt;датчиков., устанавливаемых на путях. Все табло метро синхронизованы, текущее&lt;br&gt;время отсчитывается и устанавливается из центральной службы времени, находящейся&lt;br&gt;на ПУ.&lt;/p&gt;&lt;p class=&quot;MsoNormal&quot; style=&quot;text-indent:27.0pt&quot;&gt;На табло высвечивается конечная&lt;br&gt;станция назначения прибывающего поезда. Эти данные содержатся в расписании&lt;br&gt;движения поездов, которое хранится в памяти табло и периодически обновляется с&lt;br&gt;ПУ.&lt;/p&gt;&lt;p class=&quot;MsoNormal&quot; style=&quot;text-indent:27.0pt&quot;&gt;В «бегущей строке» табло&lt;br&gt;отображается рекламная информация. Память табло хранит до 20 рекламных&lt;br&gt;сообщений. Сообщения отображаются друг за другом с небольшими паузами,&lt;br&gt;циклически. Содержание рекламных сообщений поступает с ПУ.&lt;/p&gt;&lt;p class=&quot;MsoNormal&quot; style=&quot;text-indent:27.0pt&quot;&gt;Дополнительная функция табло – по&lt;br&gt;запросу с ПУ оно пересылает данные о нарушениях расписания (опозданиях).&lt;/p&gt;&lt;p class=&quot;MsoNormal&quot; style=&quot;text-indent:27.0pt&quot;&gt;В ходе выполнения задания должна&lt;br&gt;быть создана схема баз данных для хранения рекламных сообщений, расписания и&lt;br&gt;сведений о нарушении расписаний.&lt;/p&gt;&lt;p class=&quot;MsoNormal&quot; style=&quot;text-indent:27.0pt&quot;&gt;Требуется разработать ПО только&lt;br&gt;для табло, но не для пункта управления информационной службы.&lt;/p&gt;" style="text;whiteSpace=wrap;html=1;" vertex="1" parent="1">
          <mxGeometry x="1050" y="30" width="530" height="520" as="geometry" />
        </mxCell>
        <mxCell id="iKDYDLjzP7U--BUIRFLF-328" value="&lt;span style=&quot;font-size: 16px;&quot;&gt;Получение оповещения&lt;/span&gt;" style="rounded=1;whiteSpace=wrap;html=1;" vertex="1" parent="1">
          <mxGeometry x="2825" y="2290" width="120" height="60" as="geometry" />
        </mxCell>
        <mxCell id="iKDYDLjzP7U--BUIRFLF-329" value="&lt;span style=&quot;font-size: 16px; text-wrap-mode: wrap;&quot;&gt;Отправка &lt;br&gt;запроса к памяти&lt;/span&gt;" style="html=1;shadow=0;dashed=0;align=center;verticalAlign=middle;shape=mxgraph.arrows2.arrow;dy=0;dx=30;notch=30;" vertex="1" parent="1">
          <mxGeometry x="2800" y="2380" width="170" height="80" as="geometry" />
        </mxCell>
        <mxCell id="iKDYDLjzP7U--BUIRFLF-330" style="edgeStyle=orthogonalEdgeStyle;rounded=0;orthogonalLoop=1;jettySize=auto;html=1;exitX=0.75;exitY=1;exitDx=0;exitDy=0;entryX=0.5;entryY=0;entryDx=0;entryDy=0;" edge="1" parent="1" source="iKDYDLjzP7U--BUIRFLF-332" target="iKDYDLjzP7U--BUIRFLF-360">
          <mxGeometry relative="1" as="geometry" />
        </mxCell>
        <mxCell id="iKDYDLjzP7U--BUIRFLF-331" style="edgeStyle=orthogonalEdgeStyle;rounded=0;orthogonalLoop=1;jettySize=auto;html=1;exitX=0.232;exitY=0.836;exitDx=0;exitDy=0;entryX=0.5;entryY=0;entryDx=0;entryDy=0;exitPerimeter=0;" edge="1" parent="1" source="iKDYDLjzP7U--BUIRFLF-332" target="iKDYDLjzP7U--BUIRFLF-389">
          <mxGeometry relative="1" as="geometry">
            <Array as="points">
              <mxPoint x="2884" y="2510" />
              <mxPoint x="2885" y="2510" />
            </Array>
          </mxGeometry>
        </mxCell>
        <mxCell id="iKDYDLjzP7U--BUIRFLF-332" value="" style="rounded=0;whiteSpace=wrap;html=1;fillColor=#1ba1e2;strokeColor=none;fontColor=#ffffff;" vertex="1" parent="1">
          <mxGeometry x="2780" y="2500" width="450" height="10" as="geometry" />
        </mxCell>
        <mxCell id="iKDYDLjzP7U--BUIRFLF-333" value="" style="rounded=0;whiteSpace=wrap;html=1;fillColor=#1ba1e2;strokeColor=none;fontColor=#ffffff;" vertex="1" parent="1">
          <mxGeometry x="2780" y="2830.25" width="450" height="10" as="geometry" />
        </mxCell>
        <mxCell id="iKDYDLjzP7U--BUIRFLF-334" value="&lt;span style=&quot;font-size: 16px;&quot;&gt;Ожидание &lt;br&gt;(10 секунд)&lt;/span&gt;" style="rounded=1;whiteSpace=wrap;html=1;" vertex="1" parent="1">
          <mxGeometry x="2825" y="2700" width="120" height="60" as="geometry" />
        </mxCell>
        <mxCell id="iKDYDLjzP7U--BUIRFLF-335" style="edgeStyle=orthogonalEdgeStyle;rounded=0;orthogonalLoop=1;jettySize=auto;html=1;exitX=0.5;exitY=1;exitDx=0;exitDy=0;entryX=0.233;entryY=0.1;entryDx=0;entryDy=0;entryPerimeter=0;" edge="1" parent="1" source="iKDYDLjzP7U--BUIRFLF-334" target="iKDYDLjzP7U--BUIRFLF-333">
          <mxGeometry relative="1" as="geometry" />
        </mxCell>
        <mxCell id="iKDYDLjzP7U--BUIRFLF-336" style="edgeStyle=orthogonalEdgeStyle;rounded=0;orthogonalLoop=1;jettySize=auto;html=1;exitX=0.5;exitY=1;exitDx=0;exitDy=0;entryX=0.512;entryY=0.038;entryDx=0;entryDy=0;entryPerimeter=0;" edge="1" parent="1" source="iKDYDLjzP7U--BUIRFLF-328" target="iKDYDLjzP7U--BUIRFLF-329">
          <mxGeometry relative="1" as="geometry" />
        </mxCell>
        <mxCell id="iKDYDLjzP7U--BUIRFLF-337" style="edgeStyle=orthogonalEdgeStyle;rounded=0;orthogonalLoop=1;jettySize=auto;html=1;exitX=0;exitY=0;exitDx=70;exitDy=80;exitPerimeter=0;entryX=0.202;entryY=0.2;entryDx=0;entryDy=0;entryPerimeter=0;" edge="1" parent="1" source="iKDYDLjzP7U--BUIRFLF-329" target="iKDYDLjzP7U--BUIRFLF-332">
          <mxGeometry relative="1" as="geometry" />
        </mxCell>
        <mxCell id="iKDYDLjzP7U--BUIRFLF-338" value="3А Альтернативный поток" style="text;html=1;align=center;verticalAlign=middle;whiteSpace=wrap;rounded=0;" vertex="1" parent="1">
          <mxGeometry x="2410" y="1110" width="750" height="30" as="geometry" />
        </mxCell>
        <mxCell id="iKDYDLjzP7U--BUIRFLF-339" value="Датчик конкретной станции" style="rounded=0;whiteSpace=wrap;html=1;" vertex="1" parent="1">
          <mxGeometry x="2410" y="1140" width="250" height="30" as="geometry" />
        </mxCell>
        <mxCell id="iKDYDLjzP7U--BUIRFLF-340" value="Память табло" style="rounded=0;whiteSpace=wrap;html=1;" vertex="1" parent="1">
          <mxGeometry x="2910" y="1140" width="250" height="30" as="geometry" />
        </mxCell>
        <mxCell id="iKDYDLjzP7U--BUIRFLF-341" value="1. Датчик оповещает табло об отбытии поезда" style="rounded=0;whiteSpace=wrap;html=1;" vertex="1" parent="1">
          <mxGeometry x="2410" y="1170" width="250" height="60" as="geometry" />
        </mxCell>
        <mxCell id="iKDYDLjzP7U--BUIRFLF-342" value="" style="rounded=0;whiteSpace=wrap;html=1;" vertex="1" parent="1">
          <mxGeometry x="2910" y="1170" width="250" height="60" as="geometry" />
        </mxCell>
        <mxCell id="iKDYDLjzP7U--BUIRFLF-343" value="Процессор табло (связующее звено)" style="rounded=0;whiteSpace=wrap;html=1;" vertex="1" parent="1">
          <mxGeometry x="2660" y="1140" width="250" height="30" as="geometry" />
        </mxCell>
        <mxCell id="iKDYDLjzP7U--BUIRFLF-344" value="" style="rounded=0;whiteSpace=wrap;html=1;" vertex="1" parent="1">
          <mxGeometry x="2660" y="1170" width="250" height="60" as="geometry" />
        </mxCell>
        <mxCell id="iKDYDLjzP7U--BUIRFLF-345" value="" style="rounded=0;whiteSpace=wrap;html=1;" vertex="1" parent="1">
          <mxGeometry x="2410" y="1230" width="250" height="60" as="geometry" />
        </mxCell>
        <mxCell id="iKDYDLjzP7U--BUIRFLF-346" value="" style="rounded=0;whiteSpace=wrap;html=1;" vertex="1" parent="1">
          <mxGeometry x="2910" y="1230" width="250" height="60" as="geometry" />
        </mxCell>
        <mxCell id="iKDYDLjzP7U--BUIRFLF-347" value="2. Процессор принимает оповещение датчика и обращается к памяти для записи новых данных о времени отбытия поезда, ждать 10 секунд" style="rounded=0;whiteSpace=wrap;html=1;" vertex="1" parent="1">
          <mxGeometry x="2660" y="1230" width="250" height="60" as="geometry" />
        </mxCell>
        <mxCell id="iKDYDLjzP7U--BUIRFLF-348" value="" style="rounded=0;whiteSpace=wrap;html=1;" vertex="1" parent="1">
          <mxGeometry x="2410" y="1290" width="250" height="60" as="geometry" />
        </mxCell>
        <mxCell id="iKDYDLjzP7U--BUIRFLF-349" value="3. Память получает запрос, сверяется с переменной памяти о информации приехавшего поезда, видит &quot;false&quot;, возвращает процессору пустую инф." style="rounded=0;whiteSpace=wrap;html=1;" vertex="1" parent="1">
          <mxGeometry x="2910" y="1290" width="250" height="60" as="geometry" />
        </mxCell>
        <mxCell id="iKDYDLjzP7U--BUIRFLF-350" value="" style="rounded=0;whiteSpace=wrap;html=1;" vertex="1" parent="1">
          <mxGeometry x="2660" y="1290" width="250" height="60" as="geometry" />
        </mxCell>
        <mxCell id="iKDYDLjzP7U--BUIRFLF-351" value="" style="rounded=0;whiteSpace=wrap;html=1;" vertex="1" parent="1">
          <mxGeometry x="2410" y="1350" width="250" height="60" as="geometry" />
        </mxCell>
        <mxCell id="iKDYDLjzP7U--BUIRFLF-352" value="" style="rounded=0;whiteSpace=wrap;html=1;" vertex="1" parent="1">
          <mxGeometry x="2910" y="1350" width="250" height="60" as="geometry" />
        </mxCell>
        <mxCell id="iKDYDLjzP7U--BUIRFLF-353" value="4. Процессор получает пустой результат запроса о времени отбытия, ничего не выводит" style="rounded=0;whiteSpace=wrap;html=1;" vertex="1" parent="1">
          <mxGeometry x="2660" y="1350" width="250" height="60" as="geometry" />
        </mxCell>
        <mxCell id="iKDYDLjzP7U--BUIRFLF-354" style="edgeStyle=orthogonalEdgeStyle;rounded=0;orthogonalLoop=1;jettySize=auto;html=1;exitX=0;exitY=0.5;exitDx=0;exitDy=0;entryX=1;entryY=0.5;entryDx=0;entryDy=0;endArrow=open;endFill=0;" edge="1" parent="1" source="iKDYDLjzP7U--BUIRFLF-355" target="iKDYDLjzP7U--BUIRFLF-387">
          <mxGeometry relative="1" as="geometry">
            <Array as="points">
              <mxPoint x="2210" y="2723" />
            </Array>
          </mxGeometry>
        </mxCell>
        <mxCell id="iKDYDLjzP7U--BUIRFLF-355" value="&lt;span style=&quot;font-size: 16px;&quot;&gt;запись &quot;false&quot;&lt;/span&gt;" style="rounded=1;whiteSpace=wrap;html=1;" vertex="1" parent="1">
          <mxGeometry x="2210" y="2705" width="120" height="30.5" as="geometry" />
        </mxCell>
        <mxCell id="iKDYDLjzP7U--BUIRFLF-356" style="edgeStyle=orthogonalEdgeStyle;rounded=0;orthogonalLoop=1;jettySize=auto;html=1;exitX=0.5;exitY=1;exitDx=0;exitDy=0;entryX=0.5;entryY=0;entryDx=0;entryDy=0;endArrow=open;endFill=0;" edge="1" parent="1" source="iKDYDLjzP7U--BUIRFLF-357" target="iKDYDLjzP7U--BUIRFLF-293">
          <mxGeometry relative="1" as="geometry" />
        </mxCell>
        <mxCell id="iKDYDLjzP7U--BUIRFLF-357" value="&lt;span style=&quot;font-size: 16px;&quot;&gt;запись &quot;true&quot;&lt;/span&gt;" style="rounded=1;whiteSpace=wrap;html=1;" vertex="1" parent="1">
          <mxGeometry x="2228" y="2820" width="122" height="30.5" as="geometry" />
        </mxCell>
        <mxCell id="iKDYDLjzP7U--BUIRFLF-358" style="edgeStyle=orthogonalEdgeStyle;rounded=0;orthogonalLoop=1;jettySize=auto;html=1;exitX=1;exitY=0.5;exitDx=0;exitDy=0;entryX=0.5;entryY=0;entryDx=0;entryDy=0;" edge="1" parent="1" source="iKDYDLjzP7U--BUIRFLF-360" target="iKDYDLjzP7U--BUIRFLF-362">
          <mxGeometry relative="1" as="geometry">
            <Array as="points">
              <mxPoint x="3175" y="2580" />
            </Array>
          </mxGeometry>
        </mxCell>
        <mxCell id="iKDYDLjzP7U--BUIRFLF-359" style="edgeStyle=orthogonalEdgeStyle;rounded=0;orthogonalLoop=1;jettySize=auto;html=1;exitX=0;exitY=0.5;exitDx=0;exitDy=0;entryX=1;entryY=0.5;entryDx=0;entryDy=0;" edge="1" parent="1" source="iKDYDLjzP7U--BUIRFLF-360" target="iKDYDLjzP7U--BUIRFLF-389">
          <mxGeometry relative="1" as="geometry" />
        </mxCell>
        <mxCell id="iKDYDLjzP7U--BUIRFLF-360" value="" style="rhombus;whiteSpace=wrap;html=1;" vertex="1" parent="1">
          <mxGeometry x="3077" y="2540" width="80" height="80" as="geometry" />
        </mxCell>
        <mxCell id="iKDYDLjzP7U--BUIRFLF-361" style="edgeStyle=orthogonalEdgeStyle;rounded=0;orthogonalLoop=1;jettySize=auto;html=1;exitX=0.5;exitY=1;exitDx=0;exitDy=0;entryX=0.5;entryY=0;entryDx=0;entryDy=0;" edge="1" parent="1" source="iKDYDLjzP7U--BUIRFLF-362" target="iKDYDLjzP7U--BUIRFLF-363">
          <mxGeometry relative="1" as="geometry" />
        </mxCell>
        <mxCell id="iKDYDLjzP7U--BUIRFLF-362" value="&lt;font&gt;Запись времени соответств. поезда&lt;/font&gt;" style="rounded=1;whiteSpace=wrap;html=1;" vertex="1" parent="1">
          <mxGeometry x="3120" y="2655" width="110" height="60" as="geometry" />
        </mxCell>
        <mxCell id="iKDYDLjzP7U--BUIRFLF-363" value="&lt;span style=&quot;font-size: 16px;&quot;&gt;Возврат знач.времени&lt;/span&gt;" style="rounded=1;whiteSpace=wrap;html=1;" vertex="1" parent="1">
          <mxGeometry x="3120" y="2743" width="110" height="60" as="geometry" />
        </mxCell>
        <mxCell id="iKDYDLjzP7U--BUIRFLF-364" style="edgeStyle=orthogonalEdgeStyle;rounded=0;orthogonalLoop=1;jettySize=auto;html=1;exitX=0.5;exitY=1;exitDx=0;exitDy=0;entryX=0.877;entryY=0.142;entryDx=0;entryDy=0;entryPerimeter=0;" edge="1" parent="1" source="iKDYDLjzP7U--BUIRFLF-363" target="iKDYDLjzP7U--BUIRFLF-333">
          <mxGeometry relative="1" as="geometry" />
        </mxCell>
        <mxCell id="iKDYDLjzP7U--BUIRFLF-365" value="[false]" style="text;html=1;whiteSpace=wrap;strokeColor=none;fillColor=none;align=center;verticalAlign=middle;rounded=0;" vertex="1" parent="1">
          <mxGeometry x="3020" y="2548.5" width="60" height="30" as="geometry" />
        </mxCell>
        <mxCell id="iKDYDLjzP7U--BUIRFLF-366" value="[true]" style="text;html=1;whiteSpace=wrap;strokeColor=none;fillColor=none;align=center;verticalAlign=middle;rounded=0;" vertex="1" parent="1">
          <mxGeometry x="3157" y="2548.5" width="60" height="30" as="geometry" />
        </mxCell>
        <mxCell id="iKDYDLjzP7U--BUIRFLF-367" style="edgeStyle=orthogonalEdgeStyle;rounded=0;orthogonalLoop=1;jettySize=auto;html=1;exitX=0.5;exitY=1;exitDx=0;exitDy=0;exitPerimeter=0;entryX=0.5;entryY=0;entryDx=0;entryDy=0;" edge="1" parent="1" source="iKDYDLjzP7U--BUIRFLF-368" target="iKDYDLjzP7U--BUIRFLF-371">
          <mxGeometry relative="1" as="geometry" />
        </mxCell>
        <mxCell id="iKDYDLjzP7U--BUIRFLF-368" value="&lt;span style=&quot;font-size: 16px;&quot;&gt;Получение результата запроса&lt;/span&gt;" style="strokeWidth=2;html=1;shape=mxgraph.flowchart.stored_data;whiteSpace=wrap;container=0;fixDash=0;noLabel=0;portConstraintRotation=0;" vertex="1" parent="1">
          <mxGeometry x="2820" y="2884.5" width="130" height="60" as="geometry" />
        </mxCell>
        <mxCell id="iKDYDLjzP7U--BUIRFLF-369" style="edgeStyle=orthogonalEdgeStyle;rounded=0;orthogonalLoop=1;jettySize=auto;html=1;exitX=0;exitY=0.5;exitDx=0;exitDy=0;entryX=0.5;entryY=0;entryDx=0;entryDy=0;" edge="1" parent="1" source="iKDYDLjzP7U--BUIRFLF-371" target="iKDYDLjzP7U--BUIRFLF-377">
          <mxGeometry relative="1" as="geometry" />
        </mxCell>
        <mxCell id="iKDYDLjzP7U--BUIRFLF-370" style="edgeStyle=orthogonalEdgeStyle;rounded=0;orthogonalLoop=1;jettySize=auto;html=1;exitX=1;exitY=0.5;exitDx=0;exitDy=0;entryX=0.5;entryY=0;entryDx=0;entryDy=0;" edge="1" parent="1" source="iKDYDLjzP7U--BUIRFLF-371" target="iKDYDLjzP7U--BUIRFLF-375">
          <mxGeometry relative="1" as="geometry" />
        </mxCell>
        <mxCell id="iKDYDLjzP7U--BUIRFLF-371" value="" style="rhombus;whiteSpace=wrap;html=1;" vertex="1" parent="1">
          <mxGeometry x="2845" y="2979" width="80" height="80" as="geometry" />
        </mxCell>
        <mxCell id="iKDYDLjzP7U--BUIRFLF-372" value="[результат пустой]" style="text;html=1;whiteSpace=wrap;strokeColor=none;fillColor=none;align=center;verticalAlign=middle;rounded=0;" vertex="1" parent="1">
          <mxGeometry x="2785" y="2983.5" width="60" height="30" as="geometry" />
        </mxCell>
        <mxCell id="iKDYDLjzP7U--BUIRFLF-373" value="[результат с инф.]" style="text;html=1;whiteSpace=wrap;strokeColor=none;fillColor=none;align=center;verticalAlign=middle;rounded=0;" vertex="1" parent="1">
          <mxGeometry x="2925" y="2983.5" width="60" height="30" as="geometry" />
        </mxCell>
        <mxCell id="iKDYDLjzP7U--BUIRFLF-374" style="edgeStyle=orthogonalEdgeStyle;rounded=0;orthogonalLoop=1;jettySize=auto;html=1;exitX=0.5;exitY=1;exitDx=0;exitDy=0;entryX=1;entryY=0.5;entryDx=0;entryDy=0;" edge="1" parent="1" source="iKDYDLjzP7U--BUIRFLF-375" target="iKDYDLjzP7U--BUIRFLF-380">
          <mxGeometry relative="1" as="geometry" />
        </mxCell>
        <mxCell id="iKDYDLjzP7U--BUIRFLF-375" value="&lt;span style=&quot;font-size: 16px;&quot;&gt;Вывод информации о времени отб.&lt;/span&gt;" style="rounded=1;whiteSpace=wrap;html=1;" vertex="1" parent="1">
          <mxGeometry x="2890" y="3079" width="120" height="60" as="geometry" />
        </mxCell>
        <mxCell id="iKDYDLjzP7U--BUIRFLF-376" style="edgeStyle=orthogonalEdgeStyle;rounded=0;orthogonalLoop=1;jettySize=auto;html=1;exitX=0.5;exitY=1;exitDx=0;exitDy=0;entryX=0;entryY=0.5;entryDx=0;entryDy=0;" edge="1" parent="1" source="iKDYDLjzP7U--BUIRFLF-377" target="iKDYDLjzP7U--BUIRFLF-380">
          <mxGeometry relative="1" as="geometry" />
        </mxCell>
        <mxCell id="iKDYDLjzP7U--BUIRFLF-377" value="&lt;span style=&quot;font-size: 16px;&quot;&gt;Ничего не выводит&lt;/span&gt;" style="rounded=1;whiteSpace=wrap;html=1;" vertex="1" parent="1">
          <mxGeometry x="2760" y="3079" width="120" height="60" as="geometry" />
        </mxCell>
        <mxCell id="iKDYDLjzP7U--BUIRFLF-378" style="edgeStyle=orthogonalEdgeStyle;rounded=0;orthogonalLoop=1;jettySize=auto;html=1;exitX=0.25;exitY=1;exitDx=0;exitDy=0;entryX=0.56;entryY=0.025;entryDx=0;entryDy=0;entryPerimeter=0;" edge="1" parent="1" source="iKDYDLjzP7U--BUIRFLF-333" target="iKDYDLjzP7U--BUIRFLF-368">
          <mxGeometry relative="1" as="geometry" />
        </mxCell>
        <mxCell id="iKDYDLjzP7U--BUIRFLF-379" style="edgeStyle=orthogonalEdgeStyle;rounded=0;orthogonalLoop=1;jettySize=auto;html=1;exitX=0.5;exitY=1;exitDx=0;exitDy=0;entryX=0.5;entryY=0;entryDx=0;entryDy=0;" edge="1" parent="1" source="iKDYDLjzP7U--BUIRFLF-380" target="iKDYDLjzP7U--BUIRFLF-382">
          <mxGeometry relative="1" as="geometry" />
        </mxCell>
        <mxCell id="iKDYDLjzP7U--BUIRFLF-380" value="" style="rhombus;whiteSpace=wrap;html=1;" vertex="1" parent="1">
          <mxGeometry x="2845" y="3170" width="80" height="80" as="geometry" />
        </mxCell>
        <mxCell id="iKDYDLjzP7U--BUIRFLF-381" value="" style="group" vertex="1" connectable="0" parent="1">
          <mxGeometry x="2865" y="3294.5" width="40" height="40" as="geometry" />
        </mxCell>
        <mxCell id="iKDYDLjzP7U--BUIRFLF-382" value="" style="ellipse;whiteSpace=wrap;html=1;aspect=fixed;fillColor=#FFFFFF;" vertex="1" parent="iKDYDLjzP7U--BUIRFLF-381">
          <mxGeometry width="40" height="40" as="geometry" />
        </mxCell>
        <mxCell id="iKDYDLjzP7U--BUIRFLF-383" value="" style="ellipse;whiteSpace=wrap;html=1;aspect=fixed;fillColor=#252525;" vertex="1" parent="iKDYDLjzP7U--BUIRFLF-381">
          <mxGeometry x="5" y="5" width="30" height="30" as="geometry" />
        </mxCell>
        <mxCell id="iKDYDLjzP7U--BUIRFLF-384" style="edgeStyle=orthogonalEdgeStyle;rounded=0;orthogonalLoop=1;jettySize=auto;html=1;exitX=0.5;exitY=1;exitDx=0;exitDy=0;entryX=0.458;entryY=-0.001;entryDx=0;entryDy=0;entryPerimeter=0;endArrow=open;endFill=0;" edge="1" parent="1" source="iKDYDLjzP7U--BUIRFLF-385" target="iKDYDLjzP7U--BUIRFLF-192">
          <mxGeometry relative="1" as="geometry" />
        </mxCell>
        <mxCell id="iKDYDLjzP7U--BUIRFLF-385" value="" style="rhombus;whiteSpace=wrap;html=1;" vertex="1" parent="1">
          <mxGeometry x="350" y="2531" width="80" height="80" as="geometry" />
        </mxCell>
        <mxCell id="iKDYDLjzP7U--BUIRFLF-386" style="edgeStyle=orthogonalEdgeStyle;rounded=0;orthogonalLoop=1;jettySize=auto;html=1;exitX=0.5;exitY=1;exitDx=0;exitDy=0;entryX=0.5;entryY=0;entryDx=0;entryDy=0;endArrow=open;endFill=0;" edge="1" parent="1" source="iKDYDLjzP7U--BUIRFLF-387" target="iKDYDLjzP7U--BUIRFLF-294">
          <mxGeometry relative="1" as="geometry" />
        </mxCell>
        <mxCell id="iKDYDLjzP7U--BUIRFLF-387" value="" style="rhombus;whiteSpace=wrap;html=1;" vertex="1" parent="1">
          <mxGeometry x="2025" y="2702.5" width="40" height="40.5" as="geometry" />
        </mxCell>
        <mxCell id="iKDYDLjzP7U--BUIRFLF-388" style="edgeStyle=orthogonalEdgeStyle;rounded=0;orthogonalLoop=1;jettySize=auto;html=1;exitX=0.5;exitY=1;exitDx=0;exitDy=0;entryX=0.5;entryY=0;entryDx=0;entryDy=0;" edge="1" parent="1" source="iKDYDLjzP7U--BUIRFLF-389" target="iKDYDLjzP7U--BUIRFLF-334">
          <mxGeometry relative="1" as="geometry" />
        </mxCell>
        <mxCell id="iKDYDLjzP7U--BUIRFLF-389" value="" style="rhombus;whiteSpace=wrap;html=1;" vertex="1" parent="1">
          <mxGeometry x="2865" y="2559.75" width="40" height="40.5" as="geometry" />
        </mxCell>
        <mxCell id="iKDYDLjzP7U--BUIRFLF-391" value="&lt;span style=&quot;font-size: 48px;&quot;&gt;CONCEPT DIAGRAM&lt;/span&gt;" style="text;html=1;whiteSpace=wrap;strokeColor=none;fillColor=none;align=center;verticalAlign=middle;rounded=0;" vertex="1" parent="1">
          <mxGeometry x="1210" y="3710" width="700" height="30" as="geometry" />
        </mxCell>
        <mxCell id="iKDYDLjzP7U--BUIRFLF-392" value="&lt;div style=&quot;text-align: justify;&quot;&gt;&lt;span style=&quot;background-color: transparent; color: light-dark(rgb(0, 0, 0), rgb(255, 255, 255));&quot;&gt;&lt;font style=&quot;font-size: 24px;&quot;&gt;Список понятий:&lt;br&gt;0.Станция&lt;br&gt;1.Поезд (служебный, общественный)&lt;br&gt;2.Табло (память, данные рекламы, данные расписания)&lt;br&gt;3.Датчик (входной, выходной)&lt;br&gt;4.Данные (реклама, инф. о поезде, расписание)&lt;br&gt;5.Пункт управления (служба времени, БД расписания, БД рекламы)&lt;/font&gt;&lt;/span&gt;&lt;/div&gt;&lt;div style=&quot;text-align: justify;&quot;&gt;&lt;span style=&quot;background-color: transparent; color: light-dark(rgb(0, 0, 0), rgb(255, 255, 255));&quot;&gt;&lt;font style=&quot;font-size: 24px;&quot;&gt;6.Таймер&lt;/font&gt;&lt;/span&gt;&lt;/div&gt;" style="text;html=1;whiteSpace=wrap;strokeColor=none;fillColor=none;align=left;verticalAlign=middle;rounded=0;" vertex="1" parent="1">
          <mxGeometry x="1200" y="3760" width="780" height="230" as="geometry" />
        </mxCell>
        <mxCell id="iKDYDLjzP7U--BUIRFLF-393" value="Станция метро" style="swimlane;childLayout=stackLayout;horizontal=1;startSize=50;horizontalStack=0;rounded=1;fontSize=14;fontStyle=0;strokeWidth=2;resizeParent=0;resizeLast=1;shadow=0;dashed=0;align=center;arcSize=4;whiteSpace=wrap;html=1;" vertex="1" parent="1">
          <mxGeometry x="1280" y="4290" width="160" height="120" as="geometry">
            <mxRectangle x="1275" y="4180" width="140" height="50" as="alternateBounds" />
          </mxGeometry>
        </mxCell>
        <mxCell id="iKDYDLjzP7U--BUIRFLF-394" value="- Название&lt;div&gt;- Местоположение&lt;/div&gt;" style="align=left;strokeColor=none;fillColor=none;spacingLeft=4;spacingRight=4;fontSize=12;verticalAlign=top;resizable=0;rotatable=0;part=1;html=1;whiteSpace=wrap;" vertex="1" parent="iKDYDLjzP7U--BUIRFLF-393">
          <mxGeometry y="50" width="160" height="70" as="geometry" />
        </mxCell>
        <mxCell id="iKDYDLjzP7U--BUIRFLF-428" style="edgeStyle=orthogonalEdgeStyle;rounded=0;orthogonalLoop=1;jettySize=auto;html=1;exitX=0;exitY=0.25;exitDx=0;exitDy=0;entryX=1;entryY=0.25;entryDx=0;entryDy=0;endArrow=none;endFill=0;" edge="1" parent="1" source="iKDYDLjzP7U--BUIRFLF-395" target="iKDYDLjzP7U--BUIRFLF-393">
          <mxGeometry relative="1" as="geometry" />
        </mxCell>
        <mxCell id="iKDYDLjzP7U--BUIRFLF-429" value="Связан с" style="edgeLabel;html=1;align=center;verticalAlign=middle;resizable=0;points=[];" vertex="1" connectable="0" parent="iKDYDLjzP7U--BUIRFLF-428">
          <mxGeometry x="0.0078" y="1" relative="1" as="geometry">
            <mxPoint as="offset" />
          </mxGeometry>
        </mxCell>
        <mxCell id="iKDYDLjzP7U--BUIRFLF-395" value="Датчик" style="swimlane;childLayout=stackLayout;horizontal=1;startSize=50;horizontalStack=0;rounded=1;fontSize=14;fontStyle=0;strokeWidth=2;resizeParent=0;resizeLast=1;shadow=0;dashed=0;align=center;arcSize=4;whiteSpace=wrap;html=1;" vertex="1" parent="1">
          <mxGeometry x="1550" y="4290" width="160" height="120" as="geometry">
            <mxRectangle x="1275" y="4180" width="140" height="50" as="alternateBounds" />
          </mxGeometry>
        </mxCell>
        <mxCell id="iKDYDLjzP7U--BUIRFLF-396" value="- Буфер данных" style="align=left;strokeColor=none;fillColor=none;spacingLeft=4;spacingRight=4;fontSize=12;verticalAlign=top;resizable=0;rotatable=0;part=1;html=1;whiteSpace=wrap;" vertex="1" parent="iKDYDLjzP7U--BUIRFLF-395">
          <mxGeometry y="50" width="160" height="70" as="geometry" />
        </mxCell>
        <mxCell id="iKDYDLjzP7U--BUIRFLF-401" style="edgeStyle=orthogonalEdgeStyle;rounded=0;orthogonalLoop=1;jettySize=auto;html=1;exitX=0;exitY=0.25;exitDx=0;exitDy=0;entryX=1;entryY=0.25;entryDx=0;entryDy=0;endArrow=block;endFill=0;endSize=12;" edge="1" parent="1" source="iKDYDLjzP7U--BUIRFLF-397" target="iKDYDLjzP7U--BUIRFLF-395">
          <mxGeometry relative="1" as="geometry" />
        </mxCell>
        <mxCell id="iKDYDLjzP7U--BUIRFLF-397" value="Входной датчик" style="swimlane;childLayout=stackLayout;horizontal=1;startSize=50;horizontalStack=0;rounded=1;fontSize=14;fontStyle=0;strokeWidth=2;resizeParent=0;resizeLast=1;shadow=0;dashed=0;align=center;arcSize=4;whiteSpace=wrap;html=1;" vertex="1" collapsed="1" parent="1">
          <mxGeometry x="1790" y="4222" width="140" height="50" as="geometry">
            <mxRectangle x="1760" y="4222" width="160" height="120" as="alternateBounds" />
          </mxGeometry>
        </mxCell>
        <mxCell id="iKDYDLjzP7U--BUIRFLF-398" value="1" style="align=left;strokeColor=none;fillColor=none;spacingLeft=4;spacingRight=4;fontSize=12;verticalAlign=top;resizable=0;rotatable=0;part=1;html=1;whiteSpace=wrap;" vertex="1" parent="iKDYDLjzP7U--BUIRFLF-397">
          <mxGeometry y="50" width="160" height="70" as="geometry" />
        </mxCell>
        <mxCell id="iKDYDLjzP7U--BUIRFLF-402" style="edgeStyle=orthogonalEdgeStyle;rounded=0;orthogonalLoop=1;jettySize=auto;html=1;exitX=0;exitY=0.25;exitDx=0;exitDy=0;entryX=1;entryY=0.25;entryDx=0;entryDy=0;endArrow=block;endFill=0;endSize=12;" edge="1" parent="1" source="iKDYDLjzP7U--BUIRFLF-399" target="iKDYDLjzP7U--BUIRFLF-395">
          <mxGeometry relative="1" as="geometry" />
        </mxCell>
        <mxCell id="iKDYDLjzP7U--BUIRFLF-399" value="Выходной датчик" style="swimlane;childLayout=stackLayout;horizontal=1;startSize=50;horizontalStack=0;rounded=1;fontSize=14;fontStyle=0;strokeWidth=2;resizeParent=0;resizeLast=1;shadow=0;dashed=0;align=center;arcSize=4;whiteSpace=wrap;html=1;" vertex="1" collapsed="1" parent="1">
          <mxGeometry x="1790" y="4360" width="140" height="50" as="geometry">
            <mxRectangle x="1760" y="4360" width="160" height="120" as="alternateBounds" />
          </mxGeometry>
        </mxCell>
        <mxCell id="iKDYDLjzP7U--BUIRFLF-400" value="1" style="align=left;strokeColor=none;fillColor=none;spacingLeft=4;spacingRight=4;fontSize=12;verticalAlign=top;resizable=0;rotatable=0;part=1;html=1;whiteSpace=wrap;" vertex="1" parent="iKDYDLjzP7U--BUIRFLF-399">
          <mxGeometry y="50" width="160" height="70" as="geometry" />
        </mxCell>
        <mxCell id="iKDYDLjzP7U--BUIRFLF-432" style="edgeStyle=orthogonalEdgeStyle;rounded=0;orthogonalLoop=1;jettySize=auto;html=1;exitX=1;exitY=0.25;exitDx=0;exitDy=0;entryX=0;entryY=0.25;entryDx=0;entryDy=0;endArrow=none;endFill=0;" edge="1" parent="1" source="iKDYDLjzP7U--BUIRFLF-404" target="iKDYDLjzP7U--BUIRFLF-393">
          <mxGeometry relative="1" as="geometry" />
        </mxCell>
        <mxCell id="iKDYDLjzP7U--BUIRFLF-433" value="связано с" style="edgeLabel;html=1;align=center;verticalAlign=middle;resizable=0;points=[];" vertex="1" connectable="0" parent="iKDYDLjzP7U--BUIRFLF-432">
          <mxGeometry x="-0.0195" y="-1" relative="1" as="geometry">
            <mxPoint as="offset" />
          </mxGeometry>
        </mxCell>
        <mxCell id="iKDYDLjzP7U--BUIRFLF-442" style="edgeStyle=orthogonalEdgeStyle;rounded=0;orthogonalLoop=1;jettySize=auto;html=1;exitX=0.75;exitY=0;exitDx=0;exitDy=0;entryX=0.25;entryY=0;entryDx=0;entryDy=0;endArrow=none;endFill=0;startArrow=classic;startFill=1;" edge="1" parent="1" source="iKDYDLjzP7U--BUIRFLF-404" target="iKDYDLjzP7U--BUIRFLF-395">
          <mxGeometry relative="1" as="geometry">
            <Array as="points">
              <mxPoint x="1152" y="4260" />
              <mxPoint x="1590" y="4260" />
            </Array>
          </mxGeometry>
        </mxCell>
        <mxCell id="iKDYDLjzP7U--BUIRFLF-445" value="Оповещает" style="edgeLabel;html=1;align=center;verticalAlign=middle;resizable=0;points=[];" vertex="1" connectable="0" parent="iKDYDLjzP7U--BUIRFLF-442">
          <mxGeometry x="-0.0361" y="2" relative="1" as="geometry">
            <mxPoint as="offset" />
          </mxGeometry>
        </mxCell>
        <mxCell id="iKDYDLjzP7U--BUIRFLF-446" style="edgeStyle=orthogonalEdgeStyle;rounded=0;orthogonalLoop=1;jettySize=auto;html=1;exitX=0.5;exitY=1;exitDx=0;exitDy=0;entryX=0.5;entryY=0;entryDx=0;entryDy=0;endArrow=none;endFill=0;" edge="1" parent="1" source="iKDYDLjzP7U--BUIRFLF-404" target="iKDYDLjzP7U--BUIRFLF-420">
          <mxGeometry relative="1" as="geometry" />
        </mxCell>
        <mxCell id="iKDYDLjzP7U--BUIRFLF-447" value="Формирует запросы" style="edgeLabel;html=1;align=center;verticalAlign=middle;resizable=0;points=[];" vertex="1" connectable="0" parent="iKDYDLjzP7U--BUIRFLF-446">
          <mxGeometry x="0.0916" y="1" relative="1" as="geometry">
            <mxPoint as="offset" />
          </mxGeometry>
        </mxCell>
        <mxCell id="iKDYDLjzP7U--BUIRFLF-404" value="Табло" style="swimlane;childLayout=stackLayout;horizontal=1;startSize=50;horizontalStack=0;rounded=1;fontSize=14;fontStyle=0;strokeWidth=2;resizeParent=0;resizeLast=1;shadow=0;dashed=0;align=center;arcSize=4;whiteSpace=wrap;html=1;" vertex="1" parent="1">
          <mxGeometry x="1017.33" y="4290" width="160" height="120" as="geometry">
            <mxRectangle x="1032" y="4290" width="140" height="50" as="alternateBounds" />
          </mxGeometry>
        </mxCell>
        <mxCell id="iKDYDLjzP7U--BUIRFLF-405" value="1" style="align=left;strokeColor=none;fillColor=none;spacingLeft=4;spacingRight=4;fontSize=12;verticalAlign=top;resizable=0;rotatable=0;part=1;html=1;whiteSpace=wrap;" vertex="1" parent="iKDYDLjzP7U--BUIRFLF-404">
          <mxGeometry y="50" width="160" height="70" as="geometry" />
        </mxCell>
        <mxCell id="iKDYDLjzP7U--BUIRFLF-408" style="edgeStyle=orthogonalEdgeStyle;rounded=0;orthogonalLoop=1;jettySize=auto;html=1;exitX=1;exitY=0.25;exitDx=0;exitDy=0;entryX=0;entryY=0.25;entryDx=0;entryDy=0;endArrow=diamondThin;endFill=1;endSize=18;" edge="1" parent="1" source="iKDYDLjzP7U--BUIRFLF-406" target="iKDYDLjzP7U--BUIRFLF-404">
          <mxGeometry relative="1" as="geometry" />
        </mxCell>
        <mxCell id="iKDYDLjzP7U--BUIRFLF-406" value="Память табло" style="swimlane;childLayout=stackLayout;horizontal=1;startSize=50;horizontalStack=0;rounded=1;fontSize=14;fontStyle=0;strokeWidth=2;resizeParent=0;resizeLast=1;shadow=0;dashed=0;align=center;arcSize=4;whiteSpace=wrap;html=1;" vertex="1" parent="1">
          <mxGeometry x="683.33" y="4285" width="250" height="142" as="geometry">
            <mxRectangle x="1275" y="4180" width="140" height="50" as="alternateBounds" />
          </mxGeometry>
        </mxCell>
        <mxCell id="iKDYDLjzP7U--BUIRFLF-407" value="- Расписание поездов&lt;div&gt;- Конечная станция прибывающего поезда&lt;br&gt;&lt;div&gt;- Текущее время&lt;/div&gt;&lt;div&gt;- Текущая реклама&lt;/div&gt;&lt;/div&gt;&lt;div&gt;- Время отбытия последнего поезда&lt;/div&gt;" style="align=left;strokeColor=none;fillColor=none;spacingLeft=4;spacingRight=4;fontSize=12;verticalAlign=top;resizable=0;rotatable=0;part=1;html=1;whiteSpace=wrap;" vertex="1" parent="iKDYDLjzP7U--BUIRFLF-406">
          <mxGeometry y="50" width="250" height="92" as="geometry" />
        </mxCell>
        <mxCell id="iKDYDLjzP7U--BUIRFLF-422" style="edgeStyle=orthogonalEdgeStyle;rounded=0;orthogonalLoop=1;jettySize=auto;html=1;exitX=0.5;exitY=0;exitDx=0;exitDy=0;entryX=0.5;entryY=1;entryDx=0;entryDy=0;" edge="1" parent="1" source="iKDYDLjzP7U--BUIRFLF-409" target="iKDYDLjzP7U--BUIRFLF-394">
          <mxGeometry relative="1" as="geometry" />
        </mxCell>
        <mxCell id="iKDYDLjzP7U--BUIRFLF-423" value="Приезжает на" style="edgeLabel;html=1;align=center;verticalAlign=middle;resizable=0;points=[];" vertex="1" connectable="0" parent="iKDYDLjzP7U--BUIRFLF-422">
          <mxGeometry x="-0.0397" y="1" relative="1" as="geometry">
            <mxPoint as="offset" />
          </mxGeometry>
        </mxCell>
        <mxCell id="iKDYDLjzP7U--BUIRFLF-438" style="edgeStyle=orthogonalEdgeStyle;rounded=0;orthogonalLoop=1;jettySize=auto;html=1;exitX=1;exitY=0.25;exitDx=0;exitDy=0;entryX=0.5;entryY=1;entryDx=0;entryDy=0;endArrow=classic;endFill=1;" edge="1" parent="1" source="iKDYDLjzP7U--BUIRFLF-409" target="iKDYDLjzP7U--BUIRFLF-396">
          <mxGeometry relative="1" as="geometry" />
        </mxCell>
        <mxCell id="iKDYDLjzP7U--BUIRFLF-439" value="взаимодействует с" style="edgeLabel;html=1;align=center;verticalAlign=middle;resizable=0;points=[];" vertex="1" connectable="0" parent="iKDYDLjzP7U--BUIRFLF-438">
          <mxGeometry x="-0.2387" y="-2" relative="1" as="geometry">
            <mxPoint as="offset" />
          </mxGeometry>
        </mxCell>
        <mxCell id="iKDYDLjzP7U--BUIRFLF-409" value="Поезд" style="swimlane;childLayout=stackLayout;horizontal=1;startSize=50;horizontalStack=0;rounded=1;fontSize=14;fontStyle=0;strokeWidth=2;resizeParent=0;resizeLast=1;shadow=0;dashed=0;align=center;arcSize=4;whiteSpace=wrap;html=1;" vertex="1" parent="1">
          <mxGeometry x="1280" y="4482" width="160" height="120" as="geometry">
            <mxRectangle x="1275" y="4180" width="140" height="50" as="alternateBounds" />
          </mxGeometry>
        </mxCell>
        <mxCell id="iKDYDLjzP7U--BUIRFLF-410" value="- Название поезда (номер)" style="align=left;strokeColor=none;fillColor=none;spacingLeft=4;spacingRight=4;fontSize=12;verticalAlign=top;resizable=0;rotatable=0;part=1;html=1;whiteSpace=wrap;" vertex="1" parent="iKDYDLjzP7U--BUIRFLF-409">
          <mxGeometry y="50" width="160" height="70" as="geometry" />
        </mxCell>
        <mxCell id="iKDYDLjzP7U--BUIRFLF-415" style="edgeStyle=orthogonalEdgeStyle;rounded=0;orthogonalLoop=1;jettySize=auto;html=1;exitX=0.5;exitY=0;exitDx=0;exitDy=0;entryX=0.5;entryY=1;entryDx=0;entryDy=0;endSize=12;endArrow=block;endFill=0;" edge="1" parent="1" source="iKDYDLjzP7U--BUIRFLF-411" target="iKDYDLjzP7U--BUIRFLF-410">
          <mxGeometry relative="1" as="geometry" />
        </mxCell>
        <mxCell id="iKDYDLjzP7U--BUIRFLF-411" value="Общественный поезд" style="swimlane;childLayout=stackLayout;horizontal=1;startSize=50;horizontalStack=0;rounded=1;fontSize=14;fontStyle=0;strokeWidth=2;resizeParent=0;resizeLast=1;shadow=0;dashed=0;align=center;arcSize=4;whiteSpace=wrap;html=1;" vertex="1" collapsed="1" parent="1">
          <mxGeometry x="1192" y="4662" width="140" height="50" as="geometry">
            <mxRectangle x="1191" y="4712" width="160" height="120" as="alternateBounds" />
          </mxGeometry>
        </mxCell>
        <mxCell id="iKDYDLjzP7U--BUIRFLF-412" value="1" style="align=left;strokeColor=none;fillColor=none;spacingLeft=4;spacingRight=4;fontSize=12;verticalAlign=top;resizable=0;rotatable=0;part=1;html=1;whiteSpace=wrap;" vertex="1" parent="iKDYDLjzP7U--BUIRFLF-411">
          <mxGeometry y="50" width="160" height="70" as="geometry" />
        </mxCell>
        <mxCell id="iKDYDLjzP7U--BUIRFLF-416" style="edgeStyle=orthogonalEdgeStyle;rounded=0;orthogonalLoop=1;jettySize=auto;html=1;exitX=0.5;exitY=0;exitDx=0;exitDy=0;entryX=0.5;entryY=1;entryDx=0;entryDy=0;endArrow=block;endFill=0;endSize=12;" edge="1" parent="1" source="iKDYDLjzP7U--BUIRFLF-413" target="iKDYDLjzP7U--BUIRFLF-410">
          <mxGeometry relative="1" as="geometry" />
        </mxCell>
        <mxCell id="iKDYDLjzP7U--BUIRFLF-413" value="Служебный поезд" style="swimlane;childLayout=stackLayout;horizontal=1;startSize=50;horizontalStack=0;rounded=1;fontSize=14;fontStyle=0;strokeWidth=2;resizeParent=0;resizeLast=1;shadow=0;dashed=0;align=center;arcSize=4;whiteSpace=wrap;html=1;" vertex="1" collapsed="1" parent="1">
          <mxGeometry x="1383" y="4662" width="140" height="50" as="geometry">
            <mxRectangle x="1369" y="4712" width="160" height="120" as="alternateBounds" />
          </mxGeometry>
        </mxCell>
        <mxCell id="iKDYDLjzP7U--BUIRFLF-414" value="1" style="align=left;strokeColor=none;fillColor=none;spacingLeft=4;spacingRight=4;fontSize=12;verticalAlign=top;resizable=0;rotatable=0;part=1;html=1;whiteSpace=wrap;" vertex="1" parent="iKDYDLjzP7U--BUIRFLF-413">
          <mxGeometry y="50" width="160" height="70" as="geometry" />
        </mxCell>
        <mxCell id="iKDYDLjzP7U--BUIRFLF-427" style="edgeStyle=orthogonalEdgeStyle;rounded=0;orthogonalLoop=1;jettySize=auto;html=1;exitX=0.5;exitY=1;exitDx=0;exitDy=0;entryX=0.5;entryY=0;entryDx=0;entryDy=0;endArrow=diamondThin;endFill=1;endSize=16;" edge="1" parent="1" source="iKDYDLjzP7U--BUIRFLF-417" target="iKDYDLjzP7U--BUIRFLF-404">
          <mxGeometry relative="1" as="geometry" />
        </mxCell>
        <mxCell id="iKDYDLjzP7U--BUIRFLF-417" value="Таймер" style="swimlane;childLayout=stackLayout;horizontal=1;startSize=50;horizontalStack=0;rounded=1;fontSize=14;fontStyle=0;strokeWidth=2;resizeParent=0;resizeLast=1;shadow=0;dashed=0;align=center;arcSize=4;whiteSpace=wrap;html=1;" vertex="1" parent="1">
          <mxGeometry x="1017.33" y="4120" width="160" height="120" as="geometry">
            <mxRectangle x="1275" y="4180" width="140" height="50" as="alternateBounds" />
          </mxGeometry>
        </mxCell>
        <mxCell id="iKDYDLjzP7U--BUIRFLF-418" value="- Время тика" style="align=left;strokeColor=none;fillColor=none;spacingLeft=4;spacingRight=4;fontSize=12;verticalAlign=top;resizable=0;rotatable=0;part=1;html=1;whiteSpace=wrap;" vertex="1" parent="iKDYDLjzP7U--BUIRFLF-417">
          <mxGeometry y="50" width="160" height="70" as="geometry" />
        </mxCell>
        <mxCell id="iKDYDLjzP7U--BUIRFLF-420" value="Пункт управления" style="swimlane;childLayout=stackLayout;horizontal=1;startSize=50;horizontalStack=0;rounded=1;fontSize=14;fontStyle=0;strokeWidth=2;resizeParent=0;resizeLast=1;shadow=0;dashed=0;align=center;arcSize=4;whiteSpace=wrap;html=1;" vertex="1" parent="1">
          <mxGeometry x="1017.33" y="4480" width="160" height="120" as="geometry">
            <mxRectangle x="1275" y="4180" width="140" height="50" as="alternateBounds" />
          </mxGeometry>
        </mxCell>
        <mxCell id="iKDYDLjzP7U--BUIRFLF-421" value="- БД Расписания&lt;div&gt;- Текущее время&lt;/div&gt;" style="align=left;strokeColor=none;fillColor=none;spacingLeft=4;spacingRight=4;fontSize=12;verticalAlign=top;resizable=0;rotatable=0;part=1;html=1;whiteSpace=wrap;" vertex="1" parent="iKDYDLjzP7U--BUIRFLF-420">
          <mxGeometry y="50" width="160" height="70" as="geometry" />
        </mxCell>
        <mxCell id="iKDYDLjzP7U--BUIRFLF-424" value="&lt;font&gt;*&lt;/font&gt;" style="text;html=1;whiteSpace=wrap;strokeColor=none;fillColor=none;align=center;verticalAlign=middle;rounded=0;" vertex="1" parent="1">
          <mxGeometry x="1335" y="4462" width="20" height="20" as="geometry" />
        </mxCell>
        <mxCell id="iKDYDLjzP7U--BUIRFLF-425" value="*" style="text;html=1;whiteSpace=wrap;strokeColor=none;fillColor=none;align=center;verticalAlign=middle;rounded=0;" vertex="1" parent="1">
          <mxGeometry x="1335" y="4410" width="20" height="20" as="geometry" />
        </mxCell>
        <mxCell id="iKDYDLjzP7U--BUIRFLF-430" value="*" style="text;html=1;whiteSpace=wrap;strokeColor=none;fillColor=none;align=center;verticalAlign=middle;rounded=0;" vertex="1" parent="1">
          <mxGeometry x="1530" y="4300" width="20" height="20" as="geometry" />
        </mxCell>
        <mxCell id="iKDYDLjzP7U--BUIRFLF-431" value="1" style="text;html=1;whiteSpace=wrap;strokeColor=none;fillColor=none;align=center;verticalAlign=middle;rounded=0;" vertex="1" parent="1">
          <mxGeometry x="1440" y="4300" width="20" height="20" as="geometry" />
        </mxCell>
        <mxCell id="iKDYDLjzP7U--BUIRFLF-435" value="*" style="text;html=1;whiteSpace=wrap;strokeColor=none;fillColor=none;align=center;verticalAlign=middle;rounded=0;" vertex="1" parent="1">
          <mxGeometry x="1177.33" y="4300" width="20" height="20" as="geometry" />
        </mxCell>
        <mxCell id="iKDYDLjzP7U--BUIRFLF-436" value="1" style="text;html=1;whiteSpace=wrap;strokeColor=none;fillColor=none;align=center;verticalAlign=middle;rounded=0;" vertex="1" parent="1">
          <mxGeometry x="1260" y="4300" width="20" height="20" as="geometry" />
        </mxCell>
        <mxCell id="iKDYDLjzP7U--BUIRFLF-440" value="*" style="text;html=1;whiteSpace=wrap;strokeColor=none;fillColor=none;align=center;verticalAlign=middle;rounded=0;" vertex="1" parent="1">
          <mxGeometry x="1443" y="4490" width="20" height="20" as="geometry" />
        </mxCell>
        <mxCell id="iKDYDLjzP7U--BUIRFLF-441" value="*" style="text;html=1;whiteSpace=wrap;strokeColor=none;fillColor=none;align=center;verticalAlign=middle;rounded=0;" vertex="1" parent="1">
          <mxGeometry x="1610" y="4410" width="20" height="20" as="geometry" />
        </mxCell>
        <mxCell id="iKDYDLjzP7U--BUIRFLF-443" value="*" style="text;html=1;whiteSpace=wrap;strokeColor=none;fillColor=none;align=center;verticalAlign=middle;rounded=0;" vertex="1" parent="1">
          <mxGeometry x="1570" y="4270" width="20" height="20" as="geometry" />
        </mxCell>
        <mxCell id="iKDYDLjzP7U--BUIRFLF-444" value="1" style="text;html=1;whiteSpace=wrap;strokeColor=none;fillColor=none;align=center;verticalAlign=middle;rounded=0;" vertex="1" parent="1">
          <mxGeometry x="1115.33" y="4270" width="20" height="20" as="geometry" />
        </mxCell>
      </root>
    </mxGraphModel>
  </diagram>
</mxfile>
